<svg width="120" height="120" viewBox="0 0 120 120" fill="none" xmlns="http://www.w3.org/2000/svg">
<g clip-path="url(#clip0_0_9)">
<path d="M38.7533 24.96C38.383 25.3451 38.081 25.7903 37.86 26.2767L37.8333 26.25L0.446671 110.47L0.483338 110.507C-0.209996 111.85 0.950004 114.583 3.32667 116.963C5.70334 119.34 8.43667 120.5 9.78 119.807L9.81334 119.84L94.0333 82.45L94.0067 82.42C94.4967 82.1867 94.9467 81.9033 95.3233 81.5233C100.53 76.3167 92.0867 59.4333 76.47 43.8133C60.8467 28.1933 43.9633 19.7533 38.7533 24.96Z" fill="#DD2E44"/>
<path d="M43.3333 40L1.38667 108.353L0.446671 110.47L0.483338 110.507C-0.209996 111.85 0.950004 114.583 3.32667 116.963C4.1 117.737 4.90334 118.323 5.69 118.82L56.6667 56.6667L43.3333 40Z" fill="#EA596E"/>
<path d="M76.7067 43.5532C92.2733 59.1266 100.917 75.7266 96.0033 80.6332C91.0933 85.5466 74.4933 76.9066 58.9167 61.3399C43.3467 45.7666 34.7067 29.1599 39.6167 24.2499C44.53 19.3399 61.13 27.9799 76.7067 43.5532Z" fill="#A0041E"/>
<path d="M61.9667 45.3633C61.6268 45.6391 61.2354 45.8444 60.8153 45.9675C60.3953 46.0905 59.955 46.1287 59.52 46.08C56.6267 45.7666 54.1933 44.76 52.49 43.17C50.6867 41.4866 49.7967 39.2266 50.04 36.9633C50.4667 32.99 54.4533 29.3433 61.25 30.0766C63.8933 30.36 65.0733 29.51 65.1133 29.1033C65.16 28.7 64.19 27.6166 61.5467 27.33C58.6533 27.0166 56.22 26.01 54.5133 24.42C52.71 22.7366 51.8167 20.4766 52.0633 18.2133C52.4967 14.24 56.48 10.5933 63.27 11.33C65.1967 11.5366 66.2133 11.14 66.6433 10.8833C66.9867 10.6733 67.1233 10.4733 67.1367 10.3566C67.1767 9.95331 66.22 8.86998 63.57 8.58331C63.1346 8.53682 62.7126 8.40481 62.3283 8.19487C61.944 7.98493 61.605 7.70118 61.3306 7.3599C61.0562 7.01862 60.8519 6.62653 60.7294 6.20611C60.6069 5.7857 60.5686 5.34523 60.6167 4.90998C60.6628 4.47469 60.7944 4.0528 61.004 3.66852C61.2136 3.28425 61.497 2.94517 61.838 2.67075C62.179 2.39632 62.5709 2.19197 62.9911 2.06943C63.4113 1.94688 63.8516 1.90855 64.2867 1.95664C71.0767 2.68664 74.1967 7.09664 73.7667 11.0733C73.3333 15.0533 69.35 18.6933 62.5533 17.9633C60.6267 17.7533 59.62 18.1533 59.1867 18.41C58.8433 18.6166 58.7033 18.82 58.69 18.9333C58.6467 19.34 59.61 20.42 62.26 20.7066C69.05 21.44 72.17 25.8466 71.74 29.8233C71.31 33.7966 67.3267 37.4433 60.5333 36.7066C58.6067 36.5 57.5933 36.9 57.16 37.1533C56.8133 37.3666 56.68 37.5666 56.6667 37.68C56.6233 38.0833 57.5867 39.1666 60.2333 39.4533C60.8887 39.524 61.5085 39.7875 62.0141 40.2104C62.5198 40.6334 62.8887 41.1967 63.0743 41.8293C63.2598 42.4619 63.2536 43.1352 63.0564 43.7643C62.8593 44.3933 62.4801 44.9498 61.9667 45.3633Z" fill="#AA8DD8"/>
<path d="M102.203 76.1901C108.78 74.3334 113.317 77.2667 114.397 81.1167C115.477 84.9634 113.137 89.8334 106.563 91.6834C103.997 92.4034 103.227 93.6301 103.33 94.0201C103.443 94.4134 104.747 95.0601 107.307 94.3367C113.88 92.4867 118.417 95.4201 119.497 99.2667C120.583 103.117 118.237 107.98 111.66 109.833C109.097 110.553 108.323 111.783 108.437 112.173C108.547 112.563 109.847 113.21 112.41 112.49C112.835 112.359 113.283 112.314 113.726 112.358C114.168 112.402 114.598 112.534 114.989 112.747C115.38 112.96 115.724 113.249 116.002 113.597C116.279 113.946 116.484 114.346 116.604 114.774C116.724 115.203 116.757 115.651 116.702 116.093C116.646 116.535 116.502 116.96 116.279 117.346C116.056 117.731 115.758 118.067 115.402 118.335C115.047 118.604 114.642 118.798 114.21 118.907C107.64 120.757 103.1 117.83 102.013 113.977C100.933 110.13 103.277 105.267 109.857 103.413C112.423 102.69 113.193 101.467 113.08 101.073C112.973 100.683 111.673 100.033 109.113 100.753C102.533 102.607 98 99.6801 96.9167 95.8234C95.8333 91.9767 98.1767 87.1134 104.753 85.2567C107.313 84.5401 108.083 83.3067 107.977 82.9201C107.863 82.5267 106.567 81.8801 104.003 82.6001C103.575 82.7444 103.122 82.8001 102.671 82.7637C102.22 82.7273 101.782 82.5997 101.382 82.3885C100.982 82.1773 100.63 81.887 100.346 81.5352C100.062 81.1835 99.8522 80.7776 99.7299 80.3424C99.6077 79.9071 99.5753 79.4515 99.6347 79.0033C99.6941 78.5551 99.844 78.1237 100.075 77.7353C100.307 77.3469 100.615 77.0096 100.981 76.744C101.346 76.4783 101.762 76.2899 102.203 76.1901Z" fill="#77B255"/>
<path d="M76.67 67.2001C75.9797 67.1991 75.3068 66.9841 74.7438 66.5847C74.1808 66.1853 73.7556 65.6211 73.5267 64.9699C73.2978 64.3187 73.2765 63.6125 73.4658 62.9487C73.655 62.2848 74.0455 61.696 74.5833 61.2634C75.31 60.6801 92.6433 47.0668 117.14 50.5701C117.583 50.6202 118.012 50.7587 118.4 50.9775C118.789 51.1962 119.13 51.4908 119.403 51.8436C119.676 52.1965 119.875 52.6005 119.989 53.0318C120.102 53.463 120.128 53.9127 120.065 54.3542C120.002 54.7957 119.851 55.2201 119.621 55.6021C119.391 55.9842 119.086 56.3162 118.726 56.5784C118.365 56.8407 117.955 57.0279 117.521 57.129C117.086 57.23 116.636 57.2429 116.197 57.1668C94.5533 54.0934 78.9067 66.3468 78.7533 66.4701C78.1621 66.9432 77.4272 67.2007 76.67 67.2001Z" fill="#AA8DD8"/>
<path d="M19.18 53.3334C18.6604 53.3334 18.1481 53.212 17.6838 52.9788C17.2195 52.7457 16.8161 52.4072 16.5059 51.9904C16.1957 51.5736 15.9872 51.0901 15.897 50.5784C15.8069 50.0668 15.8376 49.5411 15.9867 49.0434C19.7633 36.4667 23.1867 16.3967 18.98 11.1634C18.51 10.5701 17.8 9.98672 16.1733 10.1101C13.0467 10.3501 13.3433 16.9467 13.3467 17.0134C13.389 17.455 13.3428 17.9006 13.2107 18.3241C13.0786 18.7476 12.8633 19.1405 12.5774 19.4797C12.2915 19.8189 11.9407 20.0977 11.5457 20.2996C11.1507 20.5015 10.7193 20.6225 10.2769 20.6556C9.83455 20.6886 9.39 20.633 8.96937 20.4921C8.54873 20.3511 8.16046 20.1276 7.82732 19.8346C7.49418 19.5417 7.22288 19.1852 7.0293 18.786C6.83572 18.3868 6.72377 17.953 6.70001 17.5101C6.35667 12.9134 7.78667 4.06006 15.6733 3.46339C19.1933 3.19672 22.1167 4.42006 24.18 6.98672C32.0833 16.8234 24.06 45.3401 22.3733 50.9601C22.1669 51.6464 21.7448 52.2479 21.1696 52.6754C20.5944 53.1029 19.8967 53.3337 19.18 53.3334Z" fill="#77B255"/>
<path d="M85 36.6667C87.7614 36.6667 90 34.4282 90 31.6667C90 28.9053 87.7614 26.6667 85 26.6667C82.2386 26.6667 80 28.9053 80 31.6667C80 34.4282 82.2386 36.6667 85 36.6667Z" fill="#5C913B"/>
<path d="M6.66667 66.6666C10.3486 66.6666 13.3333 63.6818 13.3333 59.9999C13.3333 56.318 10.3486 53.3333 6.66667 53.3333C2.98477 53.3333 0 56.318 0 59.9999C0 63.6818 2.98477 66.6666 6.66667 66.6666Z" fill="#9266CC"/>
<path d="M108.333 70C111.095 70 113.333 67.7614 113.333 65C113.333 62.2386 111.095 60 108.333 60C105.572 60 103.333 62.2386 103.333 65C103.333 67.7614 105.572 70 108.333 70Z" fill="#5C913B"/>
<path d="M78.3333 110C81.0948 110 83.3333 107.761 83.3333 105C83.3333 102.239 81.0948 100 78.3333 100C75.5719 100 73.3333 102.239 73.3333 105C73.3333 107.761 75.5719 110 78.3333 110Z" fill="#5C913B"/>
<path d="M93.3333 20.0001C97.0152 20.0001 100 17.0153 100 13.3334C100 9.65152 97.0152 6.66675 93.3333 6.66675C89.6514 6.66675 86.6667 9.65152 86.6667 13.3334C86.6667 17.0153 89.6514 20.0001 93.3333 20.0001Z" fill="#FFCC4D"/>
<path d="M108.333 33.3333C111.095 33.3333 113.333 31.0947 113.333 28.3333C113.333 25.5718 111.095 23.3333 108.333 23.3333C105.572 23.3333 103.333 25.5718 103.333 28.3333C103.333 31.0947 105.572 33.3333 108.333 33.3333Z" fill="#FFCC4D"/>
<path d="M98.3333 46.6667C101.095 46.6667 103.333 44.4282 103.333 41.6667C103.333 38.9053 101.095 36.6667 98.3333 36.6667C95.5719 36.6667 93.3333 38.9053 93.3333 41.6667C93.3333 44.4282 95.5719 46.6667 98.3333 46.6667Z" fill="#FFCC4D"/>
<path d="M25 83.3333C27.7614 83.3333 30 81.0947 30 78.3333C30 75.5718 27.7614 73.3333 25 73.3333C22.2386 73.3333 20 75.5718 20 78.3333C20 81.0947 22.2386 83.3333 25 83.3333Z" fill="#FFCC4D"/>
</g>
<defs>
<clipPath id="clip0_0_9">
<rect width="120" height="120" fill="white"/>
</clipPath>
</defs>
</svg>
