<svg width="120" height="120" viewBox="0 0 120 120" fill="none" xmlns="http://www.w3.org/2000/svg">
<path d="M116.667 60C116.667 91.2967 91.2967 116.667 60 116.667C28.7067 116.667 3.33337 91.2967 3.33337 60C3.33337 28.7066 28.7067 3.33331 60 3.33331C91.2967 3.33331 116.667 28.7066 116.667 60Z" fill="#FFCC4D"/>
<path d="M60 103.333C67.3638 103.333 73.3333 98.8562 73.3333 93.3333C73.3333 87.8105 67.3638 83.3333 60 83.3333C52.6362 83.3333 46.6666 87.8105 46.6666 93.3333C46.6666 98.8562 52.6362 103.333 60 103.333Z" fill="#65471B"/>
<path d="M92.9966 48.5233C93.4293 50.4569 93.4747 52.457 93.1301 54.4081C92.7854 56.3593 92.0576 58.2229 90.9888 59.8912C89.9199 61.5595 88.531 62.9996 86.9025 64.1281C85.2739 65.2567 83.4379 66.0514 81.5005 66.4664C79.5631 66.8814 77.5626 66.9085 75.6147 66.546C73.6668 66.1835 71.8099 65.4388 70.1515 64.3546C68.493 63.2705 67.0657 61.8686 65.9521 60.2298C64.8385 58.591 64.0606 56.7478 63.6633 54.8067C62.8704 50.9325 63.6395 46.9019 65.8032 43.5919C67.9669 40.2818 71.3501 37.9601 75.2169 37.1318C79.0837 36.3036 83.1211 37.0357 86.4508 39.1691C89.7805 41.3024 92.133 44.6643 92.9966 48.5233Z" fill="#F4F7F9"/>
<path d="M78.3333 63.32C82.9357 63.32 86.6667 59.592 86.6667 54.9934C86.6667 50.3947 82.9357 46.6667 78.3333 46.6667C73.731 46.6667 70 50.3947 70 54.9934C70 59.592 73.731 63.32 78.3333 63.32Z" fill="#292F33"/>
<path d="M89.8766 33.1033C89.3618 33.1029 88.8541 32.9831 88.3933 32.7533C82.9384 30.0105 76.7036 29.2357 70.7433 30.56C70.3138 30.6582 69.8691 30.6703 69.4349 30.5955C69.0008 30.5208 68.5857 30.3607 68.2138 30.1246C67.8418 29.8884 67.5204 29.5809 67.268 29.2197C67.0157 28.8586 66.8374 28.451 66.7436 28.0206C66.6497 27.5901 66.6422 27.1453 66.7213 26.7119C66.8004 26.2785 66.9647 25.8651 67.2046 25.4955C67.4444 25.126 67.7552 24.8077 68.1189 24.559C68.4826 24.3103 68.8919 24.1362 69.3233 24.0467C76.7674 22.3942 84.5537 23.362 91.3666 26.7867C92.0393 27.1219 92.5789 27.6746 92.8979 28.3551C93.2169 29.0355 93.2966 29.8038 93.1241 30.5353C92.9515 31.2668 92.5369 31.9184 91.9474 32.3846C91.3579 32.8508 90.6282 33.104 89.8766 33.1033ZM30.1233 33.1033C29.3718 33.104 28.6421 32.8508 28.0526 32.3846C27.4631 31.9184 27.0484 31.2668 26.8759 30.5353C26.7034 29.8038 26.7831 29.0355 27.1021 28.3551C27.4211 27.6746 27.9607 27.1219 28.6333 26.7867C35.4469 23.3642 43.2325 22.3964 50.6766 24.0467C51.108 24.1362 51.5174 24.3103 51.8811 24.559C52.2448 24.8077 52.5555 25.126 52.7954 25.4955C53.0353 25.8651 53.1996 26.2785 53.2787 26.7119C53.3578 27.1453 53.3502 27.5901 53.2564 28.0206C53.1625 28.451 52.9843 28.8586 52.7319 29.2197C52.4796 29.5809 52.1581 29.8884 51.7862 30.1246C51.4143 30.3607 50.9992 30.5208 50.565 30.5955C50.1308 30.6703 49.6861 30.6582 49.2567 30.56C43.2963 29.2357 37.0616 30.0105 31.6067 32.7533C31.1459 32.9831 30.6382 33.1029 30.1233 33.1033Z" fill="#65471B"/>
<path d="M46.65 45.4833L47.73 43.9067C47.73 43.9067 50.09 40.4667 53.5267 42.8267C56.9667 45.1867 54.61 48.6233 54.61 48.6233L52.3334 51.9467C52.8934 52.3733 53.44 52.81 53.97 53.2433C53.97 53.2433 56.33 49.8033 59.7667 52.1633C63.2067 54.5233 60.85 57.96 60.85 57.96L56.2667 64.4267C56.7267 65.04 57.4767 65.39 57.8534 66.0167C57.8534 66.0167 60.2134 62.5767 63.65 64.9333C67.0934 67.2933 64.7334 70.7333 64.7334 70.7333L45.8634 98.2567C42.1085 103.729 36.3341 107.487 29.8096 108.703C23.2851 109.92 16.5447 108.495 11.07 104.743C6.08181 101.321 2.5014 96.2089 0.990903 90.3514C-0.519591 84.4938 0.142014 78.2875 2.85337 72.88C4.8167 68.98 6.30004 64.8567 7.69004 60.72L11.2034 50.2833C11.2034 50.2833 12.3434 46.27 16.3534 47.4067C20.3634 48.5467 19.2267 52.5567 19.2267 52.5567L16.1834 67.7833C16.7567 68.1767 17.3067 68.5833 17.83 69.0033L37.9534 39.7233C37.9534 39.7233 40.3134 36.2833 43.75 38.6433C47.1867 41.0033 44.83 44.44 44.83 44.44L46.65 45.4833Z" fill="#F19020"/>
<path d="M115.88 82.9867L118.693 64.35C118.763 63.8873 118.742 63.4154 118.629 62.9611C118.517 62.5068 118.316 62.0791 118.039 61.7024C117.761 61.3257 117.412 61.0074 117.011 60.7656C116.61 60.5238 116.166 60.3634 115.703 60.2933L115.29 60.23C114.355 60.0895 113.403 60.3258 112.642 60.8871C111.882 61.4484 111.375 62.2887 111.233 63.2233L109.51 74.63L109.497 74.6767C108.823 78.9933 105.147 78.74 103.763 72.1133C103.723 71.9233 103.66 71.7533 103.61 71.5733L98.4367 45.94C98.2639 45.082 97.7573 44.3279 97.0284 43.8434C96.2995 43.3589 95.408 43.1839 94.55 43.3567L93.6234 43.5433C91.8367 43.9033 90.8267 45.3933 91.1867 47.18L95.5867 69.79C95.6034 69.9133 95.6 70.02 95.6267 70.15C96.5634 74.8 94.31 74.2167 93.5 69.1333C93.4565 68.8864 93.393 68.6434 93.31 68.4067L88.9667 47.6333L88.69 46.2633C88.3034 44.35 86.6167 43.0333 84.7034 43.42L84.2434 43.5133C83.7879 43.6049 83.355 43.7853 82.9693 44.0443C82.5837 44.3034 82.2529 44.6359 81.9959 45.0229C81.739 45.4099 81.5608 45.8438 81.4717 46.2998C81.3826 46.7557 81.3843 47.2247 81.4767 47.68L86.17 70.94C86.1767 71.39 86.21 71.86 86.31 72.3733C87.29 77.3933 84.3734 74.94 82.62 72.53L82.6167 72.5267L67.89 52.5567C67.3327 51.8023 66.4987 51.2999 65.5712 51.1599C64.6437 51.0199 63.6986 51.2537 62.9434 51.81L62.5634 52.09C62.1896 52.3654 61.8737 52.7118 61.6339 53.1094C61.394 53.5069 61.2348 53.9478 61.1655 54.4069C61.0962 54.866 61.118 55.3343 61.2297 55.7849C61.3415 56.2356 61.5409 56.6598 61.8167 57.0333L65.6467 62.03L76.0867 76.3433C76.1167 76.3933 76.1334 76.4433 76.1667 76.4933C79.2834 81.1033 79.1067 83.0167 76.04 79.5L64.7067 64.1267C64.46 63.7934 64.14 63.5833 63.8134 63.3667C63.2402 62.9709 62.5585 62.7623 61.862 62.7695C61.1655 62.7766 60.4883 62.9992 59.9234 63.4067L59.3567 63.8267C58.627 64.3655 58.141 65.1719 58.0054 66.0687C57.8698 66.9655 58.0956 67.8796 58.6334 68.61L67.7767 81.0067C69.5067 83.3567 71.0234 90.2333 72.9534 95.1633C74.8867 100.093 84.9467 114.773 102.287 107.973C117.8 101.893 115.793 89.3667 115.88 82.9867Z" fill="#F19020"/>
<path d="M46.6566 45.5567L28.2733 73.5534C28.192 73.6783 28.0868 73.7859 27.9638 73.87C27.8407 73.9542 27.7022 74.0131 27.5563 74.0434C27.4104 74.0738 27.2599 74.075 27.1135 74.047C26.9671 74.0189 26.8277 73.9622 26.7033 73.88C26.5787 73.7984 26.4714 73.6931 26.3875 73.57C26.3037 73.4469 26.2449 73.3085 26.2146 73.1627C26.1842 73.0169 26.1829 72.8666 26.2107 72.7202C26.2385 72.5739 26.2949 72.4345 26.3766 72.31L44.76 44.3134L46.6566 45.5567ZM54.1566 53.2334L37.4733 79.32C37.393 79.4455 37.2888 79.5539 37.1666 79.6391C37.0444 79.7243 36.9066 79.7846 36.7611 79.8165C36.6156 79.8484 36.4653 79.8512 36.3186 79.825C36.172 79.7987 36.032 79.7438 35.9066 79.6634C35.7809 79.5834 35.6721 79.4794 35.5866 79.3573C35.5011 79.2352 35.4405 79.0975 35.4083 78.9519C35.3761 78.8064 35.3729 78.656 35.399 78.5092C35.425 78.3624 35.4797 78.2223 35.56 78.0967L52.2433 52.01L54.1566 53.2334ZM58.1866 65.6367L45.8166 85.3034C45.7374 85.4299 45.634 85.5396 45.5123 85.6261C45.3906 85.7126 45.253 85.7742 45.1074 85.8073C44.9618 85.8404 44.8111 85.8445 44.664 85.8192C44.5168 85.7939 44.3761 85.7398 44.25 85.66C43.995 85.4995 43.8142 85.2443 43.7474 84.9505C43.6805 84.6567 43.733 84.3484 43.8933 84.0934L56.2633 64.4267L58.1866 65.6367ZM65.6533 62.03L79.41 80.95C79.5334 81.1192 79.6077 81.3192 79.6247 81.5279C79.6417 81.7366 79.6007 81.946 79.5062 82.1329C79.4117 82.3197 79.2674 82.4769 79.0893 82.587C78.9111 82.6971 78.706 82.7558 78.4966 82.7567C78.3178 82.7573 78.1413 82.7152 77.9819 82.6341C77.8225 82.5529 77.6847 82.435 77.58 82.29L63.8233 63.37L65.6533 62.03ZM91.1933 47.18L96.5533 73.25C96.6139 73.5449 96.5548 73.8517 96.3892 74.103C96.2235 74.3543 95.9648 74.5295 95.67 74.59C95.3751 74.6506 95.0683 74.5915 94.817 74.4259C94.5657 74.2602 94.3905 74.0015 94.33 73.7067L88.97 47.6367L91.1933 47.18Z" fill="#B55005"/>
<path d="M58.64 68.6133C58.0466 67.8067 57.89 66.5767 58.1166 65.5933L55.8533 65.2833C55.4733 66.91 55.8233 68.6133 56.81 69.96L61.1933 75.9L62.5533 73.9167L58.64 68.6133Z" fill="#B55005"/>
</svg>
