<svg width="107" height="107" viewBox="0 0 107 107" fill="none" xmlns="http://www.w3.org/2000/svg">
<g clip-path="url(#clip0_0_84)">
<path d="M106.5 106.859V100.956C106.5 96.2594 104.634 91.7552 101.313 88.4342C97.9924 85.1133 93.4882 83.2476 88.7916 83.2476H41.5694C36.8729 83.2476 32.3687 85.1133 29.0477 88.4342C25.7268 91.7552 23.8611 96.2594 23.8611 100.956V106.859H106.5Z" fill="#E1E8ED"/>
<path d="M88.1984 83.6224C88.1984 87.6363 77.8951 90.8061 65.1806 90.8061C52.4689 90.8061 42.1627 87.6776 42.1627 83.6637C42.1627 83.4808 42.2069 83.2476 42.2483 83.2476H40.0819L38.0012 83.5398L38.0189 86.5413C38.3554 93.6394 50.3734 96.5524 65.1806 96.5524C79.9257 96.5524 91.9024 93.5745 92.3333 86.4764L92.3747 83.6018C92.3747 83.6077 88.1984 83.4394 88.1984 83.6224Z" fill="#EA596E"/>
<path d="M65.1805 93.604C80.1994 93.604 92.3746 89.0598 92.3746 83.4542C92.3746 77.8486 80.1994 73.3044 65.1805 73.3044C50.1617 73.3044 37.9865 77.8486 37.9865 83.4542C37.9865 89.0598 50.1617 93.604 65.1805 93.604Z" fill="#BE1931"/>
<path d="M65.1805 90.7235C52.4689 90.7235 42.1627 87.4681 42.1627 83.4542C42.1627 79.4403 52.4689 76.1849 65.1805 76.1849C77.8922 76.1849 88.1984 79.4403 88.1984 83.4542C88.1984 87.4681 77.8922 90.7235 65.1805 90.7235Z" fill="#292F33"/>
<path d="M52.3125 83.0616C57.4597 86.8011 60.7181 87.5212 65.1806 87.5212C69.6401 87.5212 72.9014 86.7981 78.0486 83.0616V71.8139H52.3125V83.0616Z" fill="#FFDC5D"/>
<path d="M52.2889 77.2652C55.8778 81.3204 60.3285 82.4183 65.1687 82.4183C70.0061 82.4183 74.4568 81.3204 78.0486 77.2652V66.9619H52.2889V77.2652Z" fill="#F9CA55"/>
<path d="M75.7967 10.9858C70.1153 9.14706 56.7455 9.6488 53.4016 13.9932C44.7127 14.1615 34.5186 22.0151 33.1816 32.3745C31.8594 42.6306 34.8078 47.3912 35.8556 55.1031C37.045 63.8393 41.9561 66.6342 45.8814 67.803C51.5304 75.267 57.5365 74.9483 67.6214 74.9483C87.313 74.9483 96.6926 61.7733 97.5219 39.3929C98.0236 25.8608 90.0815 15.6077 75.7967 10.9858Z" fill="#FFAC33"/>
<path d="M87.0592 40.3521C85.1526 37.7136 82.7147 35.5886 77.3668 34.8389C79.3738 35.7568 81.2951 38.9325 81.546 40.6886C81.7969 42.4446 82.0477 43.8643 80.4599 42.1082C74.0996 35.078 67.1727 37.8464 60.3108 33.5521C55.5177 30.5535 54.0568 27.2332 54.0568 27.2332C54.0568 27.2332 53.4724 31.6603 46.2031 36.1729C44.0958 37.4804 41.5812 40.3934 40.1882 44.6966C39.1847 47.7896 39.4976 50.5462 39.4976 55.2566C39.4976 69.0101 50.8338 80.5736 64.8146 80.5736C78.7953 80.5736 90.1316 68.9068 90.1316 55.2566C90.1286 46.7035 89.2314 43.3596 87.0592 40.3521Z" fill="#FFDC5D"/>
<path d="M67.6214 62.2927H61.996C61.6226 62.2927 61.2645 62.1444 61.0005 61.8804C60.7365 61.6164 60.5882 61.2583 60.5882 60.8849C60.5882 60.5116 60.7365 60.1535 61.0005 59.8895C61.2645 59.6254 61.6226 59.4771 61.996 59.4771H67.6214C67.9947 59.4771 68.3528 59.6254 68.6168 59.8895C68.8808 60.1535 69.0292 60.5116 69.0292 60.8849C69.0292 61.2583 68.8808 61.6164 68.6168 61.8804C68.3528 62.1444 67.9947 62.2927 67.6214 62.2927Z" fill="#C1694F"/>
<path d="M53.558 52.4469C52.812 52.4469 52.0966 52.1506 51.5691 51.6231C51.0416 51.0956 50.7453 50.3802 50.7453 49.6342V46.8216C50.7453 46.0756 51.0416 45.3602 51.5691 44.8327C52.0966 44.3052 52.812 44.0089 53.558 44.0089C54.3039 44.0089 55.0194 44.3052 55.5468 44.8327C56.0743 45.3602 56.3706 46.0756 56.3706 46.8216V49.6342C56.3706 50.3802 56.0743 51.0956 55.5468 51.6231C55.0194 52.1506 54.3039 52.4469 53.558 52.4469ZM76.0623 52.4469C75.3163 52.4469 74.6009 52.1506 74.0735 51.6231C73.546 51.0956 73.2496 50.3802 73.2496 49.6342V46.8216C73.2496 46.0756 73.546 45.3602 74.0735 44.8327C74.6009 44.3052 75.3163 44.0089 76.0623 44.0089C76.8083 44.0089 77.5237 44.3052 78.0512 44.8327C78.5787 45.3602 78.875 46.0756 78.875 46.8216V49.6342C78.875 50.3802 78.5787 51.0956 78.0512 51.6231C77.5237 52.1506 76.8083 52.4469 76.0623 52.4469Z" fill="#662113"/>
<path d="M65.1806 74.0393C57.0525 74.0393 54.5556 71.9585 54.1394 71.5365C53.9553 71.3617 53.8075 71.1523 53.7043 70.9204C53.6011 70.6884 53.5446 70.4384 53.538 70.1847C53.5247 69.6721 53.7156 69.1753 54.0686 68.8035C54.4216 68.4317 54.9079 68.2153 55.4204 68.2021C55.933 68.1888 56.4298 68.3796 56.8016 68.7327C56.9551 68.8419 58.9295 70.17 65.1806 70.17C71.6736 70.17 73.5507 68.7386 73.5684 68.7238C73.7468 68.547 73.9587 68.4077 74.1916 68.314C74.4246 68.2203 74.674 68.1742 74.9251 68.1783C75.1761 68.1824 75.4239 68.2367 75.6536 68.338C75.8834 68.4393 76.0906 68.5855 76.263 68.7681C76.6206 69.1427 76.8167 69.6429 76.8089 70.1607C76.8012 70.6786 76.5903 71.1727 76.2217 71.5365C75.8056 71.9585 73.3087 74.0393 65.1806 74.0393Z" fill="#C1694F"/>
<path d="M97.6458 98.0045V106.859H106.5V100.956C106.5 99.9495 106.397 98.9667 106.234 98.0045H97.6458Z" fill="#55ACEE"/>
<path d="M100.597 100.956H106.5V106.859H100.597V100.956Z" fill="#FFCC4D"/>
<path d="M71.0952 106.859C67.5594 91.6709 53.2452 80.2962 36.1006 80.2962C18.956 80.2962 4.64172 91.6709 1.10596 106.859H71.0952Z" fill="#E1E8ED"/>
<path d="M67.155 106.859C63.6931 93.6837 51.1231 83.9028 36.1005 83.9028C21.078 83.9028 8.508 93.6837 5.04602 106.859H67.155Z" fill="#292F33"/>
<path d="M64.1092 106.859C60.721 95.2391 49.4821 86.6919 36.1005 86.6919C22.7189 86.6919 11.48 95.2391 8.0918 106.859H64.1092Z" fill="#FFAC33"/>
<path d="M53.9505 104.049L54.2545 103.863C56.5241 102.482 56.9934 99.3238 55.1429 97.4231C53.7571 95.9965 52.2055 94.7411 50.521 93.6837C48.8696 92.661 47.1007 91.8414 45.2528 91.2429C42.809 90.4372 40.203 91.9306 39.7455 94.4629C39.3943 96.4137 40.4066 98.4354 42.2689 99.1202C44.7734 100.036 47.0284 101.526 48.8535 103.471C50.161 104.864 52.3184 105.044 53.9505 104.049Z" fill="#FFDC5D"/>
<path d="M18.9737 42.7014L14.4226 41.0162L12.6518 34.5231C12.5369 34.1078 12.289 33.7417 11.9459 33.4809C11.6029 33.2201 11.1838 33.079 10.7529 33.0793C10.322 33.0797 9.90314 33.2214 9.56053 33.4827C9.21793 33.7441 8.97053 34.1106 8.85631 34.5261L7.08548 41.0191L2.53443 42.7044C2.15574 42.842 1.82858 43.0929 1.59739 43.4229C1.3662 43.7529 1.24219 44.1461 1.24219 44.549C1.24219 44.9519 1.3662 45.3451 1.59739 45.6751C1.82858 46.0051 2.15574 46.256 2.53443 46.3936L7.06186 48.07L8.8445 55.1976C8.95149 55.6232 9.19762 56.0009 9.5438 56.2706C9.88998 56.5403 10.3164 56.6866 10.7552 56.6863C11.194 56.6859 11.6202 56.539 11.966 56.2687C12.3117 55.9985 12.5573 55.6204 12.6636 55.1947L14.4462 48.067L18.9737 46.3907C19.3524 46.253 19.6795 46.0022 19.9107 45.6722C20.1419 45.3421 20.2659 44.949 20.2659 44.546C20.2659 44.1431 20.1419 43.7499 19.9107 43.4199C19.6795 43.0899 19.3524 42.8391 18.9737 42.7014Z" fill="#9266CC"/>
<path d="M33.5417 14.2854L25.8385 11.4344L22.9875 3.73126C22.756 3.10769 22.3393 2.56989 21.7932 2.19012C21.2472 1.81034 20.5979 1.60678 19.9328 1.60678C19.2677 1.60678 18.6184 1.81034 18.0724 2.19012C17.5263 2.56989 17.1096 3.10769 16.8781 3.73126L14.0271 11.4344L6.32394 14.2854C5.70037 14.5169 5.16258 14.9336 4.7828 15.4797C4.40302 16.0258 4.19946 16.675 4.19946 17.3401C4.19946 18.0053 4.40302 18.6545 4.7828 19.2005C5.16258 19.7466 5.70037 20.1633 6.32394 20.3948L14.0271 23.2458L16.8781 30.949C17.1083 31.5738 17.5246 32.113 18.0708 32.4939C18.617 32.8748 19.2669 33.079 19.9328 33.079C20.5987 33.079 21.2486 32.8748 21.7948 32.4939C22.341 32.113 22.7573 31.5738 22.9875 30.949L25.8385 23.2458L33.5417 20.3948C34.1652 20.1633 34.703 19.7466 35.0828 19.2005C35.4626 18.6545 35.6661 18.0053 35.6661 17.3401C35.6661 16.675 35.4626 16.0258 35.0828 15.4797C34.703 14.9336 34.1652 14.5169 33.5417 14.2854Z" fill="#5DADEC"/>
</g>
<defs>
<clipPath id="clip0_0_84">
<rect width="106.25" height="106.25" fill="white" transform="translate(0.25 0.608704)"/>
</clipPath>
</defs>
</svg>
