<svg width="495" height="496" viewBox="0 0 495 496" fill="none" xmlns="http://www.w3.org/2000/svg">
<path d="M495 248C495 384.967 384.19 496 247.5 496C110.81 496 0 384.967 0 248C0 111.033 110.81 0 247.5 0C384.19 0 495 111.033 495 248Z" fill="url(#paint0_linear_408_862)"/>
<path d="M410.329 391.216C410.329 407.837 346.176 421.31 267.039 421.31C187.903 421.31 123.75 407.837 123.75 391.216C123.75 374.596 187.903 361.123 267.039 361.123C346.176 361.123 410.329 374.596 410.329 391.216Z" fill="#F57C1F"/>
<path d="M230.173 394.48C202.311 394.48 197.246 379.614 184.943 361.123C204.482 385.415 214.976 383.965 230.897 388.316C230.656 389.887 230.173 393.319 230.173 394.48Z" fill="#170336"/>
<path d="M307.246 349.883L243.2 355.322C245.515 358.222 260.809 367.166 268.167 371.275C268.77 373.088 269.107 377.439 265.634 381.789L271.061 377.439C280.107 369.462 295.377 352.784 307.246 349.883Z" fill="#170336"/>
<path d="M260.93 83.3918C251.884 77.2281 251.884 60.5497 256.588 58.7368C260.93 61.6374 269.252 60.5497 272.871 65.2632C268.582 64.2157 274.059 121.829 276.751 150.147L276.851 151.193C280.469 169.563 286.579 207.392 280.789 211.743C278.739 209.446 272.612 205.579 265.954 198.327C270.007 186.725 264.307 171.618 260.93 166.784V83.3918Z" fill="#F6AEA3"/>
<path d="M200.099 295.86C205.526 276.281 200.099 238.936 206.25 232.409C213.487 227.696 223.298 240.023 223.298 241.474C223.298 242.924 224.342 249.813 217.829 257.789C215.658 273.018 229.046 299.123 229.046 303.474C230.132 307.099 223.298 321.24 223.298 328.129C213.167 336.105 195.436 304.199 196.884 300.211C198.042 297.02 199.013 295.98 200.099 295.86Z" fill="#F6AEA3"/>
<path d="M221.085 192.526C224.704 184.912 234.835 160.982 250.757 166.784C270.296 172.222 260.164 202.316 257.27 206.667C256.287 208.144 251.546 209.566 248.371 211.743C242.208 218.414 242.072 225.158 243.52 225.158C238.575 228.058 222.895 231.902 211.316 228.421C219.421 226.391 221 214.885 221.085 209.567C218.872 204.211 219.316 196.249 221.085 192.526Z" fill="#F6AEA3"/>
<path d="M258.759 385.053C263.101 383.965 270.73 378.889 272.467 375.988C282.599 378.526 282.206 391.941 276.127 397.743L262.015 403.544C264.789 399.435 268.022 389.984 258.759 385.053Z" fill="#F6AEA3"/>
<path d="M216.423 172.947C238.858 146.48 254.417 157.357 260.568 163.883C267.805 173.31 268.849 189.263 267.401 197.24C265.954 205.216 252.204 218.632 249.309 219.357C249.309 220.928 248.265 223.78 248.265 224.07C248.265 224.36 249.309 226.608 249.309 226.608C249.309 226.608 246.994 227.043 242.072 225.883C240.987 224.795 243.882 213.556 248.265 211.017C252.246 209.567 256.226 205.941 258.759 199.778C261.292 193.614 266.358 174.76 252.246 169.322C238.134 163.883 233.43 174.398 228.002 181.286C222.575 188.175 218.233 202.316 223.298 209.567C223.298 213.918 220.042 227.333 212.081 228.058L202.993 234.947C195.395 216.094 205.568 212.613 207.015 207.392C213.529 192.526 206.292 186.362 216.423 172.947Z" fill="#F1D07C"/>
<path d="M248.627 219.719C255.822 214.281 264.186 203.041 266.719 197.602C273.191 204.129 284.811 218.196 290.601 216.456L279.022 235.31C278.66 250.659 282.888 285.708 297.072 295.86L247.862 298.398C245.208 298.398 242.362 298.18 242.072 301.661L237.006 352.784C234.232 350.004 225.759 344.444 222.575 344.444C222.333 341.906 221.055 336.613 217.871 335.743C215.579 334.897 210.055 333.205 206.292 333.205C207.136 331.392 208.783 326.316 208.783 321.965C213.487 326.316 220.404 329.941 223.298 326.316C221.851 324.14 227.64 313.626 227.64 304.561C225.831 290.421 214.976 276.643 216.785 258.152C219.318 255.493 223.257 248.073 223.257 241.111C221.447 236.76 212.828 231.072 208.825 232.409C205.568 233.497 206.764 232.681 205.568 234.947C204.803 236.398 203.355 245.825 204.121 256.702C204.737 265.459 204.121 286.433 201.226 295.86C199.055 296.827 194.351 299.92 192.904 304.561C185.908 289.454 182.41 261.778 187.838 245.825C190.732 242.561 197.969 236.398 212.443 228.058C223.154 232.119 236.204 227.575 241.39 224.795C242.114 225.52 245.329 225.52 248.627 224.795C249.11 226.487 248.627 221.895 248.627 219.719Z" fill="white"/>
<path d="M261.612 403.544C268.487 399.193 266.243 385.85 258.717 383.24L241.029 383.965C241.029 381.427 234.257 380.919 231.941 383.24C237.368 390.491 236.645 403.181 230.173 408.983C234.395 409.587 243.23 409.913 244.8 406.384L261.612 403.544Z" fill="white"/>
<path d="M331.447 373.088C321.075 378.285 290.239 390.129 282.279 395.93L333.66 398.83C349.581 394.117 343.895 375.988 331.447 373.088Z" fill="white"/>
<path d="M182.048 355.684C179.877 345.895 186.752 333.567 195.798 332.842L205.568 333.205C218.594 335.017 221.127 336.83 222.213 344.807C224.022 344.444 233.792 350.608 235.239 353.509C235.118 354.476 236.397 356.192 242.476 355.322C244.502 358.222 262.336 366.803 269.934 370.912C270.899 375.142 268.094 384.11 257.673 384.69L241.029 383.602C234.877 378.889 231.072 384.182 230.493 389.404C217.829 386.14 196.16 382.152 182.048 355.684Z" fill="#3A1277"/>
<path d="M276.489 397.743C279.987 392.667 283.467 380.412 271.02 376.351C282.237 367.045 299.285 348.001 315.206 349.52C322.805 350.246 322.805 342.269 323.529 333.567C361.16 312.538 366.588 341.181 362.969 350.246C343.792 373.088 302.18 386.865 276.489 397.743Z" fill="#3A1277"/>
<path d="M239.581 303.836C239.581 301.661 239.581 298.035 247.542 298.035L322.805 292.959C324.132 293.08 326.785 294.627 326.785 299.848L321.719 343.719C321.478 345.29 320.127 348.505 316.654 348.795C313.18 349.085 263.825 353.025 239.581 354.959C238.134 355.201 235.239 354.887 235.239 351.696L239.581 303.836Z" fill="#FCC02A"/>
<path d="M272.279 333.073C271.314 333.073 270.445 332.881 269.672 332.496C268.899 332.111 268.279 331.584 267.813 330.914C267.347 330.244 267.092 329.48 267.048 328.623H269.022C269.099 329.387 269.444 330.018 270.058 330.518C270.678 331.013 271.418 331.26 272.279 331.26C272.969 331.26 273.583 331.098 274.121 330.774C274.663 330.45 275.088 330.005 275.395 329.439C275.708 328.868 275.864 328.222 275.864 327.502C275.864 326.766 275.702 326.11 275.379 325.533C275.061 324.951 274.622 324.492 274.063 324.157C273.504 323.822 272.865 323.651 272.147 323.646C271.632 323.64 271.103 323.72 270.56 323.885C270.017 324.044 269.57 324.25 269.219 324.503L267.311 324.272L268.331 315.966H277.081V317.779H270.042L269.45 322.756H269.548C269.894 322.481 270.327 322.253 270.848 322.072C271.368 321.891 271.911 321.8 272.476 321.8C273.507 321.8 274.425 322.047 275.231 322.542C276.042 323.031 276.678 323.701 277.139 324.552C277.605 325.404 277.838 326.376 277.838 327.469C277.838 328.546 277.597 329.508 277.114 330.354C276.637 331.194 275.979 331.859 275.14 332.348C274.302 332.831 273.348 333.073 272.279 333.073Z" fill="black"/>
<path d="M258.232 333.139V322.262H260.075V333.139H258.232ZM253.726 328.623V326.777H264.581V328.623H253.726Z" fill="black"/>
<path d="M286.259 331.623C285.02 331.623 283.964 331.285 283.093 330.609C282.221 329.928 281.555 328.942 281.094 327.651C280.634 326.354 280.404 324.789 280.404 322.954C280.404 321.13 280.634 319.572 281.094 318.281C281.56 316.985 282.229 315.996 283.101 315.315C283.978 314.628 285.031 314.285 286.259 314.285C287.487 314.285 288.537 314.628 289.408 315.315C290.286 315.996 290.955 316.985 291.415 318.281C291.881 319.572 292.114 321.13 292.114 322.954C292.114 324.789 291.884 326.354 291.423 327.651C290.963 328.942 290.297 329.928 289.425 330.609C288.553 331.285 287.498 331.623 286.259 331.623ZM286.259 329.81C287.487 329.81 288.441 329.216 289.121 328.03C289.8 326.843 290.14 325.151 290.14 322.954C290.14 321.492 289.984 320.248 289.672 319.221C289.365 318.194 288.921 317.411 288.339 316.872C287.764 316.334 287.07 316.065 286.259 316.065C285.042 316.065 284.09 316.666 283.405 317.869C282.72 319.067 282.377 320.762 282.377 322.954C282.377 324.415 282.531 325.657 282.838 326.678C283.145 327.7 283.586 328.477 284.162 329.01C284.743 329.543 285.442 329.81 286.259 329.81Z" fill="black"/>
<path d="M300.009 330.172C298.77 330.172 297.714 329.834 296.843 329.159C295.971 328.477 295.305 327.491 294.844 326.2C294.384 324.904 294.154 323.338 294.154 321.503C294.154 319.68 294.384 318.122 294.844 316.831C295.31 315.535 295.979 314.546 296.851 313.865C297.728 313.178 298.781 312.835 300.009 312.835C301.237 312.835 302.287 313.178 303.158 313.865C304.036 314.546 304.705 315.535 305.165 316.831C305.631 318.122 305.864 319.68 305.864 321.503C305.864 323.338 305.634 324.904 305.173 326.2C304.713 327.491 304.047 328.477 303.175 329.159C302.303 329.834 301.248 330.172 300.009 330.172ZM300.009 328.359C301.237 328.359 302.191 327.766 302.871 326.579C303.55 325.393 303.89 323.701 303.89 321.503C303.89 320.042 303.734 318.798 303.422 317.771C303.115 316.743 302.671 315.96 302.089 315.422C301.514 314.884 300.82 314.615 300.009 314.615C298.792 314.615 297.84 315.216 297.155 316.419C296.47 317.617 296.127 319.312 296.127 321.503C296.127 322.965 296.281 324.206 296.588 325.228C296.895 326.25 297.336 327.027 297.912 327.56C298.493 328.093 299.192 328.359 300.009 328.359Z" fill="black"/>
<path d="M232.706 383.602C240.667 394.48 232.706 409.708 230.173 409.345C227.64 408.982 230.535 381.427 232.706 383.602Z" fill="#170336"/>
<defs>
<linearGradient id="paint0_linear_408_862" x1="140.373" y1="414.567" x2="495.586" y2="119.153" gradientUnits="userSpaceOnUse">
<stop stop-color="#1F0050"/>
<stop offset="0.46875" stop-color="#7208C6"/>
<stop offset="1" stop-color="#7000FE"/>
</linearGradient>
</defs>
</svg>
