<svg width="495" height="496" viewBox="0 0 495 496" fill="none" xmlns="http://www.w3.org/2000/svg">
<path d="M495 248C495 384.967 384.19 496 247.5 496C110.81 496 0 384.967 0 248C0 111.033 110.81 0 247.5 0C384.19 0 495 111.033 495 248Z" fill="url(#paint0_linear_408_864)"/>
<path d="M436.957 355.173C436.957 370.151 379.143 382.292 307.826 382.292C236.509 382.292 178.696 370.151 178.696 355.173C178.696 340.195 236.509 328.053 307.826 328.053C379.143 328.053 436.957 340.195 436.957 355.173Z" fill="#F57C1F"/>
<path d="M246.848 307.468C250.435 291.13 254.348 254.208 256.304 248.867C256.304 247.02 265.109 257.476 275.217 261.723C268.37 268.585 268.696 292.437 259.891 311.389C258.261 309.101 249.13 305.834 246.848 307.468Z" fill="#170336"/>
<path d="M279.457 315.196L294.457 295.265C298.478 314.107 308.935 352.184 318.587 353.752C297.065 363.228 282.717 333.821 279.457 315.196Z" fill="#170336"/>
<path d="M343.37 308.988C343.37 305.503 343.109 298.075 342.065 296.245H341.087C342.391 299.382 343.152 306.047 343.37 308.988Z" fill="#170336"/>
<path d="M303.261 183.844C302.283 181.884 301.304 175.349 303.261 172.408C303.261 175.676 309.457 184.611 314.674 181.344C314.348 176.443 326.413 184.825 322.174 192.993C323.478 201.162 334.565 203.889 338.478 201.929C340.109 208.137 346.957 215.865 351.196 213.578C351.246 213.37 351.332 213.113 351.272 213.756C351.544 214.392 352.815 218.022 353.478 219.573C347.609 217.939 335.217 229.702 331.957 228.722C330.761 224.692 326.609 214.101 323.478 210.964C319.565 207.043 315 213.252 310.435 210.964C309.639 210.457 308.763 209.274 307.899 207.697C303.261 217.172 298.696 206.39 293.804 206.39C289.891 206.39 285.652 212.707 284.022 215.865C281.957 215.103 277.174 214.933 275.87 212.058C278.478 208.464 281.087 199.855 286.63 198.875C291.065 198.091 299.466 194.627 303.111 192.993C302.873 191.154 302.89 189.637 303.261 188.746C304.022 187.765 305.087 185.413 303.261 183.844Z" fill="#F6AEA3"/>
<path d="M273.913 322.385C271.087 317.701 264.326 308.923 259.891 311.275C258.37 317.483 252.848 331.778 245.543 334.914C252.717 333.934 256.304 353.539 267.065 337.855L273.913 322.385Z" fill="#F6AEA3"/>
<path d="M260.543 311.715C259.348 310.082 254.217 305.917 247.174 306.701C245 313.562 239.609 326.632 236.739 326.632C239.674 327.939 242.283 334.914 245.217 335.895C251.217 332.758 258.261 320.864 260.543 311.715Z" fill="#F2A295"/>
<path d="M307.826 208.677C306.413 205.41 303.457 197.698 302.935 192.993C301.63 195.607 305.435 204.865 306.522 209.984L307.826 208.677Z" fill="#F2A295"/>
<path d="M284.348 238.084C342.065 231.876 338.152 217.939 354.783 216.959C368.478 216.959 373.696 224.801 371.413 242.445C369.587 256.561 369.022 290.146 369.783 305.394C363.696 301.582 348.522 295.117 340.435 296.685C339.13 287.536 330 281.328 320.217 258.783C302.935 260.416 289.891 265.858 278.152 263.244C258.913 256.382 257.283 248.653 249.13 244.292C247.717 240.045 247.565 231.223 258.261 229.916C269.022 238.084 277.174 233.837 284.348 238.084Z" fill="white"/>
<path d="M278.152 233.95C283.696 231.336 310.109 213.038 325.761 213.038C328.891 214.607 332.065 222.565 332.935 226.594C327.065 229.317 313.37 234.277 304.239 234.93C299.674 231.989 287.935 233.51 284.674 237.431C284.022 236.124 280.5 233.95 278.152 233.95Z" fill="white"/>
<path d="M284.674 216.192C281.522 215.321 276.848 213.038 275.87 210.424L258.587 230.569C260.543 231.331 264.13 234.49 267.065 234.49C268.152 233.183 271.63 231.549 275.87 232.856C276.391 230.504 281.957 220.767 284.674 216.192Z" fill="white"/>
<path d="M254.022 263.03C249.783 262.704 240.652 260.303 249.13 244.946C251.739 244.946 255.326 246.693 255.978 249.194C254.891 252.461 254.804 260.416 254.022 263.03Z" fill="white"/>
<path d="M268.696 346.891C269.674 344.494 270.717 339.114 267.065 336.761C256.304 353.099 255 332.514 244.239 334.801C240.652 345.257 218.804 352.118 216.196 359.634C230.283 375.317 257.065 357.673 268.696 346.891Z" fill="white"/>
<path d="M244.239 334.474C239.348 332.187 241.304 326.632 235.435 326.632C224.348 341.989 212.609 337.088 207.065 345.257C212.935 354.079 211.957 352.772 221.413 354.079C230.109 348.089 248.672 336.547 244.239 334.474Z" fill="white"/>
<path d="M269.022 352.118V346.891C238.37 374.664 219.457 366.495 215.87 360.287C215.87 360.287 215.543 362.966 215.543 364.535C229.891 380.872 258.587 360.614 269.022 352.118Z" fill="#170336"/>
<path d="M204.783 349.504C205.326 348.524 205.957 346.825 206.739 345.257C210.652 352.445 215.217 355.059 220.109 354.406C219.022 355.277 216.717 357.216 216.196 358C212.174 357.02 208.696 356.039 204.783 349.504Z" fill="#170336"/>
<path d="M267.065 234.817C270.978 228.722 285.473 234.817 284.348 238.198C285.978 233.296 300 231.549 305.217 234.817C300.326 236.564 287.609 238.198 284.348 238.198C276.848 235.257 269.022 236.45 267.065 234.817Z" fill="#3A1277"/>
<path d="M260.217 311.389C271.844 286.043 263.828 276.393 273.913 261.723C279.783 264.664 286.806 264.337 308.001 260.09C310.761 283.615 279.13 312.369 273.587 322.825C271.087 318.359 265.37 310.223 260.217 311.389Z" fill="#3A1277"/>
<path d="M308.001 260.09C310.088 259.567 317.567 258.456 320.719 258.129C327.893 276.1 337.675 283.615 340.936 295.705C346.48 294.725 363.762 298.972 369.632 305.507C367.675 326.419 373.871 356.153 325.284 354.846C301.806 354.846 294.457 308.561 294.457 295.378C296.739 293.418 311.087 269.565 308.001 260.09Z" fill="#3A1277"/>
<path d="M314.348 183.844C311.087 185.805 299.674 176.983 304.239 163.913C309.457 148.229 339.829 149.292 347.283 154.111C357.391 160.645 359.022 174.916 359.022 182.537C359.022 189.399 357.703 191.899 364.891 198.548C369.13 202.469 369.783 204.103 373.37 207.697C379.239 213.578 374.022 212.925 379.239 219.46C381.522 223.707 381.522 227.302 381.522 231.223C381.522 235.143 376.63 240.045 379.239 244.619C380.544 251.045 387.391 256.382 379.239 264.224C377.283 274.353 381.522 272.066 380.544 281.215C380.021 286.099 372.717 296.245 370.109 299.186C369.565 292.542 368.022 252.33 370.109 242.659C371.413 236.451 371.935 223.381 364.891 220.767C362.717 219.46 358.696 217.499 353.478 218.153C348.804 216.628 338.87 211.291 337.826 203.449C333.261 204.756 322.5 199.855 321.196 192.013C324.457 180.25 312.717 179.27 314.348 183.844Z" fill="#F1D07C"/>
<path d="M134.463 171.699C132.598 164.727 136.728 157.56 143.686 155.692L202.271 139.962C209.23 138.094 216.382 142.232 218.246 149.204L221.285 160.566C223.149 167.538 219.02 174.705 212.062 176.573L153.476 192.303C146.518 194.171 139.366 190.034 137.501 183.061L134.463 171.699Z" fill="white"/>
<path d="M161.895 169.282L162.317 170.86L155.902 172.582L155.48 171.004L161.895 169.282Z" fill="#19112B"/>
<path d="M171.649 175.597C170.809 175.822 170.008 175.858 169.245 175.704C168.483 175.55 167.821 175.236 167.259 174.761C166.698 174.287 166.298 173.682 166.06 172.946L167.778 172.484C168.023 173.131 168.471 173.6 169.121 173.892C169.776 174.178 170.478 174.22 171.227 174.019C171.828 173.857 172.325 173.573 172.717 173.165C173.114 172.756 173.38 172.269 173.516 171.705C173.655 171.135 173.641 170.536 173.473 169.91C173.302 169.269 173.008 168.735 172.592 168.309C172.18 167.876 171.692 167.58 171.127 167.419C170.562 167.258 169.966 167.259 169.34 167.422C168.89 167.537 168.448 167.73 168.014 168.001C167.579 168.266 167.238 168.55 166.991 168.852L165.276 169.097L164.231 161.628L171.847 159.583L172.269 161.161L166.142 162.806L166.785 167.277L166.871 167.254C167.107 166.934 167.431 166.635 167.843 166.355C168.254 166.076 168.705 165.87 169.197 165.738C170.094 165.497 170.951 165.498 171.767 165.74C172.587 165.976 173.297 166.41 173.896 167.044C174.5 167.676 174.929 168.468 175.184 169.42C175.434 170.357 175.448 171.25 175.225 172.1C175.006 172.943 174.588 173.675 173.971 174.297C173.354 174.914 172.579 175.347 171.649 175.597Z" fill="#19112B"/>
<path d="M184.114 172.25C183.035 172.54 182.038 172.492 181.122 172.108C180.204 171.719 179.395 171.016 178.694 170C177.991 168.979 177.426 167.67 176.999 166.073C176.574 164.485 176.412 163.075 176.513 161.844C176.616 160.607 176.969 159.589 177.569 158.793C178.173 157.99 179.009 157.445 180.078 157.158C181.147 156.871 182.141 156.925 183.059 157.319C183.982 157.707 184.794 158.411 185.497 159.432C186.203 160.447 186.768 161.748 187.193 163.336C187.62 164.933 187.784 166.35 187.685 167.586C187.584 168.817 187.234 169.831 186.634 170.628C186.032 171.42 185.192 171.961 184.114 172.25ZM183.692 170.672C184.761 170.385 185.453 169.646 185.769 168.454C186.084 167.262 185.986 165.71 185.475 163.797C185.134 162.525 184.709 161.478 184.198 160.657C183.691 159.835 183.122 159.257 182.491 158.924C181.865 158.59 181.199 158.518 180.492 158.707C179.433 158.992 178.745 159.738 178.428 160.945C178.11 162.148 178.207 163.703 178.717 165.611C179.057 166.883 179.48 167.928 179.985 168.746C180.49 169.564 181.055 170.137 181.68 170.466C182.31 170.794 182.981 170.863 183.692 170.672Z" fill="#19112B"/>
<path d="M196.713 168.867C195.634 169.157 194.637 169.11 193.721 168.725C192.803 168.336 191.994 167.633 191.293 166.617C190.59 165.596 190.025 164.287 189.598 162.69C189.173 161.102 189.011 159.693 189.112 158.461C189.216 157.224 189.568 156.207 190.168 155.41C190.772 154.607 191.608 154.062 192.677 153.775C193.746 153.488 194.74 153.542 195.658 153.936C196.581 154.324 197.393 155.028 198.096 156.049C198.802 157.064 199.367 158.365 199.792 159.953C200.219 161.55 200.383 162.967 200.284 164.203C200.183 165.434 199.833 166.448 199.233 167.245C198.631 168.037 197.791 168.578 196.713 168.867ZM196.291 167.289C197.36 167.002 198.052 166.263 198.368 165.071C198.683 163.879 198.585 162.327 198.074 160.414C197.733 159.142 197.308 158.096 196.797 157.274C196.29 156.452 195.722 155.874 195.09 155.541C194.464 155.207 193.798 155.135 193.091 155.325C192.032 155.609 191.344 156.355 191.027 157.563C190.71 158.765 190.806 160.321 191.316 162.229C191.656 163.501 192.079 164.545 192.584 165.363C193.089 166.181 193.654 166.754 194.279 167.084C194.909 167.412 195.58 167.48 196.291 167.289Z" fill="#19112B"/>
<path d="M271.576 96.7167C269.497 109.984 227.068 116.897 220.618 136.257C219.578 139.379 219.578 139.118 218.278 146.662C221.918 133.656 277.036 128.453 271.576 96.7167Z" fill="white"/>
<path d="M270.552 112.083C268.167 124.728 221.398 136.257 218.388 146.662C217.56 149.524 217.498 151.345 218.388 154.206C224.778 141.72 274.841 142.641 270.552 112.083Z" fill="white"/>
<path d="M265.77 133.328C257.277 138.858 222.091 147.127 218.538 153.946C218.41 154.55 218.509 153.825 217.174 160.105C222.13 150.64 257.797 154.726 265.77 133.328Z" fill="white"/>
<path d="M72.7201 136.613C78.0293 147.573 116.571 142.333 127.273 157.422C128.999 159.854 128.93 159.629 132.05 165.83C125.46 155.509 76.3911 165.595 72.7201 136.613Z" fill="white"/>
<path d="M77.6718 149.674C83.0803 160.014 126.598 157.628 131.955 165.859C133.429 168.122 133.964 169.686 133.951 172.404C125.119 163.263 82.0435 177.323 77.6718 149.674Z" fill="white"/>
<path d="M87.4288 166.84C96.241 169.389 128.875 167.243 133.752 172.218C134.023 172.708 133.746 172.105 136.562 177.201C129.77 170.301 99.9887 183.294 87.4288 166.84Z" fill="white"/>
<defs>
<linearGradient id="paint0_linear_408_864" x1="140.373" y1="414.567" x2="495.586" y2="119.153" gradientUnits="userSpaceOnUse">
<stop stop-color="#1F0050"/>
<stop offset="0.46875" stop-color="#7208C6"/>
<stop offset="1" stop-color="#7000FE"/>
</linearGradient>
</defs>
</svg>
