<svg width="495" height="496" viewBox="0 0 495 496" fill="none" xmlns="http://www.w3.org/2000/svg">
<path d="M495 248C495 384.967 384.19 496 247.5 496C110.81 496 0 384.967 0 248C0 111.033 110.81 0 247.5 0C384.19 0 495 111.033 495 248Z" fill="url(#paint0_linear_408_859)"/>
<path d="M418.657 365.831C418.657 387.636 339.96 405.313 242.882 405.313C145.805 405.313 67.1082 387.636 67.1082 365.831C67.1082 344.025 145.805 326.348 242.882 326.348C339.96 326.348 418.657 344.025 418.657 365.831Z" fill="#F57C1F"/>
<path d="M220.305 194.323C229.232 188.359 250.095 192.169 243.498 210.677C241.338 216.737 234.073 227.661 224.667 231.036C216.681 248.49 219.901 260.105 222.257 264.04C225.298 269.321 229.4 274.461 235.051 279.53V264.416C237.821 263.285 243.917 259.295 244.902 252.386C245.64 272.867 253.829 290.737 257.831 297.112C261.771 313.892 255.573 318.499 251.982 318.704C235.728 310.314 213.962 280.388 208.269 264.416C207.038 260.961 207.756 255.265 208.269 252.694C199.65 250.226 202.248 247.722 204.711 246.797C202.494 242.602 206.217 241.692 208.269 242.207C203.59 235.05 210.354 236.587 214.254 238.746C215.148 235.341 216.911 234.781 218.4 232.656C213.188 232.776 186.664 216.795 220.305 194.323Z" fill="#F2A295"/>
<path d="M190.243 306.298C166.231 291.184 147.01 249.301 174.715 248.684C187.644 256.087 198.765 289.096 208 294.956C203.177 294.442 194.244 296.119 190.243 306.298Z" fill="#F2A295"/>
<path d="M239.053 319.938C239.061 319.964 237.302 318.092 237.634 318.48C238.467 320.076 263.2 332.517 266.142 337.284C267.374 337.284 273.05 353.184 275.821 359.045C277.052 363.672 275.513 372.376 271.511 365.281C269.972 368.983 260.737 387.731 260.429 378.478C258.89 379.711 256.119 380.945 257.351 375.152C254.991 374.638 250.332 373.61 256.735 371.142C254.478 371.862 252.302 371.198 255.504 366.756C259.198 361.101 262.434 347.015 251.598 337.144C248.22 336.016 241.092 330.022 237.634 318.48C236.822 318.025 238.265 319.938 239.053 319.938Z" fill="#F2A295"/>
<path d="M286.595 367.682C285.192 373.166 280.684 378.586 278.367 380.637C289.501 381.495 289.366 366.756 286.595 367.682Z" fill="#F2A295"/>
<path d="M239.053 217.221C244.902 213.52 240.81 201.114 240.81 195.254C226.875 186.308 214.272 198.714 208.885 205.192C199.65 216.296 206.73 229.56 218.736 232.336C217.812 233.158 215.226 236.037 214.734 239.739C210.937 237.271 204.575 235.729 208.269 242.207C206.422 242.104 203.221 242.823 205.191 246.525C203.139 247.553 201.004 250.226 208.885 252.694C208.372 254.134 208.146 258.123 208.885 262.565C207.654 266.76 224.618 291.699 233.647 303.318L232.724 313.393C229.235 308.663 225.2 301.739 218.12 298.346C212.271 294.953 209.193 284.465 204.267 278.605C203.754 280.25 206.386 287.174 210.868 296.428C202.864 294.206 193.292 274.116 187.956 264.04C188.367 262.909 188.629 258.308 187.644 254.853C186.413 250.535 182.719 238.197 184.566 231.411C186.413 224.624 184.566 227.333 187.644 219.998C194.921 202.657 205.807 185.142 222.738 185.142C234.743 183.291 251.982 187.918 245.517 207.042C244.799 210.333 243.609 217.9 244.594 221.848C244.902 237.271 242.131 255.47 235.051 260.097V279.53C225.2 270.893 212.271 261.639 223.969 231.411C226.124 227.709 233.204 220.923 239.053 217.221Z" fill="#F1D07C"/>
<path d="M161.394 257.871C164.164 245.224 180.985 241.214 184.063 235.353C184.063 243.373 190.111 256.637 187.956 264.04C179.337 249.234 170.321 243.99 161.394 257.871Z" fill="white"/>
<path d="M242.267 243.749C242.239 243.597 243.363 243.89 243.363 243.749C243.386 243.88 242.262 243.586 242.267 243.749C242.584 245.465 246.771 249.737 247.808 250.776C247.808 253.552 239.361 262.873 235.051 264.416L234.571 260.097C239.259 256.28 242.369 246.965 242.267 243.749Z" fill="white"/>
<path d="M209.808 295.261C207.551 290.84 203.036 279.216 204.267 276.995C205.499 280.45 213.502 293.205 217.196 298.038L209.808 295.261Z" fill="white"/>
<path d="M172.388 316.169C170.541 285.015 159.855 278.283 161.394 265.636C162.01 276.124 182.239 301.98 191.474 305.99C186.549 314.318 182.054 336.651 182.547 347.015C180.187 349.483 174.341 354.55 173.849 358.004C169.31 340.229 173.004 321.104 172.388 316.169Z" fill="white"/>
<path d="M181.795 346.774C182.719 332.276 187.336 290.018 206.73 294.644C227.971 299.712 227.971 306.983 238.745 319.63C239.258 324.154 243.055 333.202 253.521 338.137C263.988 348.316 258.139 362.197 257.523 364.047C258.139 364.664 251.502 370.217 256.735 371.142C255.504 371.45 253.349 374.535 257.351 375.152C256.858 376.139 256.94 378.786 257.351 379.095C256.017 380.431 251.994 381.63 246.576 381.63C249.039 378.237 253.152 371.265 246.749 370.525C244.389 370.114 238.142 368.613 233.955 365.898C233.647 367.373 231.172 369.785 229.202 370.525C226.739 371.45 224.72 370.949 220.583 370.525C216.602 370.117 215.042 370.525 215.042 370.525C215.042 370.525 212.579 370.076 213.81 383.031C199.65 389.2 172.56 386.256 174.715 359.112L173.792 358.187C174.51 355.822 177.116 350.229 181.795 346.774Z" fill="#3A1277"/>
<path d="M286.595 367.682C285.672 365.522 280.751 362.993 276.072 360.279C275.867 365.166 275.821 370.149 271.203 365.214C270.896 368.915 262.14 380.702 262.448 380.702C262.756 380.702 265.527 384.406 271.683 385.331C277.84 383.48 287.211 371.383 286.595 367.682Z" fill="#3A1277"/>
<path d="M320.629 302.047C296.002 289.092 273.443 325.731 254.665 328.816C266.142 335.294 269.356 350.099 276.072 360.279C297.928 349.174 341.87 320.863 320.629 302.047Z" fill="#3A1277"/>
<path d="M288.808 314.062C293.265 309.743 296.914 306.592 298.157 306.366C298.157 306.366 294.12 309.683 288.808 314.062C281.125 321.508 271.044 332.428 266.758 337.829C265.28 336.595 264.295 335.258 263.988 334.744C266.147 332.777 279.453 321.774 288.808 314.062Z" fill="#170336"/>
<path d="M194.552 320.863C194.552 324.565 200.504 329.397 203.479 331.351C203.927 342.118 214.505 351.001 225.951 357.963C238.115 365.361 251.259 370.59 254.272 373.61C254.519 375.584 256.53 375.358 257.351 375.152C256.366 376.633 257.351 379.095 257.351 379.095C256.119 380.328 252.241 381.383 246.576 381.63C249.039 378.853 251.502 371.759 247.808 370.834C240.666 370.093 235.597 367.235 233.955 365.898C230.754 362.69 227.285 359.271 225.951 357.963C213.638 354.485 201.94 341.222 200.709 333.819C196.091 333.819 194.552 323.64 194.552 320.863Z" fill="#170336"/>
<path d="M248.424 370.949C246.749 370.707 237.341 368.298 233.955 365.898C233.545 367.338 231.185 370.084 228.106 370.525C219.487 371.759 217.812 368.315 213.81 370.783C212.887 386.206 233.204 383.48 225.2 404.147C232.588 404.455 234.743 399.52 234.435 391.809C234.312 388.727 246.269 381.63 246.576 381.63C246.884 381.63 252.733 373.417 248.424 370.949Z" fill="white"/>
<path d="M306.469 362.197C300.62 360.654 294.291 367.682 285.672 365.831C285.877 366.036 285.918 366.727 286.595 367.682C290.733 376.251 282.676 381.254 278.367 380.637C276.352 382.42 275.993 383.172 271.683 385.331C297.234 389.649 332.327 389.958 330.172 375.152C327.71 367.132 314.165 363.431 306.469 362.197Z" fill="white"/>
<path d="M225.2 404.147C233.34 384.03 214.426 386.873 213.81 371.142C210.855 378.051 214.836 386.771 217.196 390.266C217.812 391.5 220.89 402.605 225.2 404.147Z" fill="#170336"/>
<path d="M91.7351 158.856C91.7351 152.041 97.248 146.517 104.049 146.517H161.306C168.106 146.517 173.619 152.041 173.619 158.856V169.96C173.619 176.774 168.106 182.299 161.306 182.299H104.049C97.248 182.299 91.7351 176.774 91.7351 169.96V158.856Z" fill="#F9ED37"/>
<path d="M173.004 105.801C173.004 98.9867 178.517 93.4627 185.317 93.4627H242.575C249.375 93.4627 254.888 98.9867 254.888 105.801V116.905C254.888 123.72 249.375 129.244 242.575 129.244H185.317C178.517 129.244 173.004 123.72 173.004 116.905V105.801Z" fill="white"/>
<path d="M275.205 132.945C275.205 126.131 280.718 120.607 287.519 120.607H344.776C351.577 120.607 357.09 126.131 357.09 132.945V144.05C357.09 150.864 351.577 156.388 344.776 156.388H287.519C280.718 156.388 275.205 150.864 275.205 144.05V132.945Z" fill="white"/>
<path d="M315.84 197.721C315.84 190.907 321.352 185.383 328.153 185.383H385.41C392.211 185.383 397.724 190.907 397.724 197.721V208.826C397.724 215.64 392.211 221.164 385.41 221.164H328.153C321.352 221.164 315.84 215.64 315.84 208.826V197.721Z" fill="white"/>
<path d="M297.985 263.114C297.985 256.3 303.498 250.776 310.299 250.776H367.556C374.356 250.776 379.869 256.3 379.869 263.114V274.219C379.869 281.033 374.356 286.557 367.556 286.557H310.299C303.498 286.557 297.985 281.033 297.985 274.219V263.114Z" fill="white"/>
<defs>
<linearGradient id="paint0_linear_408_859" x1="140.373" y1="414.567" x2="495.586" y2="119.153" gradientUnits="userSpaceOnUse">
<stop stop-color="#1F0050"/>
<stop offset="0.46875" stop-color="#7208C6"/>
<stop offset="1" stop-color="#7000FE"/>
</linearGradient>
</defs>
</svg>
