<svg width="495" height="496" viewBox="0 0 495 496" fill="none" xmlns="http://www.w3.org/2000/svg">
<path d="M495 248C495 384.967 384.19 496 247.5 496C110.81 496 0 384.967 0 248C0 111.033 110.81 0 247.5 0C384.19 0 495 111.033 495 248Z" fill="url(#paint0_linear_408_860)"/>
<path d="M433.802 353.821C433.802 377.498 352.816 396.691 252.916 396.691C153.015 396.691 72.0295 377.498 72.0295 353.821C72.0295 330.144 153.015 310.95 252.916 310.95C352.816 310.95 433.802 330.144 433.802 353.821Z" fill="#F57C1F"/>
<path d="M74.1958 238.775C74.1958 232.78 79.0453 227.921 85.0274 227.921H135.394C141.376 227.921 146.225 232.78 146.225 238.775V248.543C146.225 254.537 141.376 259.396 135.394 259.396H85.0274C79.0453 259.396 74.1958 254.537 74.1958 248.543V238.775Z" fill="white"/>
<path d="M99.4283 237.541V250.171H97.9021V239.145H97.8282L94.7511 241.192V239.638L97.9021 237.541H99.4283Z" fill="#19112B"/>
<path d="M107.164 250.343C106.237 250.343 105.447 250.091 104.795 249.585C104.143 249.075 103.644 248.337 103.299 247.371C102.955 246.401 102.782 245.229 102.782 243.856C102.782 242.491 102.955 241.326 103.299 240.359C103.648 239.389 104.149 238.649 104.801 238.139C105.457 237.626 106.245 237.369 107.164 237.369C108.083 237.369 108.869 237.626 109.521 238.139C110.178 238.649 110.678 239.389 111.023 240.359C111.372 241.326 111.546 242.491 111.546 243.856C111.546 245.229 111.374 246.401 111.029 247.371C110.684 248.337 110.186 249.075 109.534 249.585C108.881 250.091 108.091 250.343 107.164 250.343ZM107.164 248.987C108.083 248.987 108.797 248.543 109.306 247.655C109.815 246.767 110.069 245.5 110.069 243.856C110.069 242.762 109.952 241.831 109.718 241.062C109.489 240.294 109.156 239.708 108.721 239.305C108.29 238.902 107.771 238.701 107.164 238.701C106.253 238.701 105.542 239.151 105.029 240.051C104.516 240.947 104.259 242.216 104.259 243.856C104.259 244.95 104.374 245.879 104.604 246.643C104.834 247.408 105.164 247.99 105.595 248.389C106.03 248.787 106.553 248.987 107.164 248.987Z" fill="#19112B"/>
<path d="M117.996 250.343C117.069 250.343 116.279 250.091 115.626 249.585C114.974 249.075 114.476 248.337 114.131 247.371C113.786 246.401 113.614 245.229 113.614 243.856C113.614 242.491 113.786 241.326 114.131 240.359C114.48 239.389 114.98 238.649 115.633 238.139C116.289 237.626 117.077 237.369 117.996 237.369C118.915 237.369 119.7 237.626 120.353 238.139C121.009 238.649 121.51 239.389 121.854 240.359C122.203 241.326 122.378 242.491 122.378 243.856C122.378 245.229 122.205 246.401 121.861 247.371C121.516 248.337 121.018 249.075 120.365 249.585C119.713 250.091 118.923 250.343 117.996 250.343ZM117.996 248.987C118.915 248.987 119.629 248.543 120.137 247.655C120.646 246.767 120.901 245.5 120.901 243.856C120.901 242.762 120.784 241.831 120.55 241.062C120.32 240.294 119.988 239.708 119.553 239.305C119.122 238.902 118.603 238.701 117.996 238.701C117.085 238.701 116.373 239.151 115.86 240.051C115.347 240.947 115.091 242.216 115.091 243.856C115.091 244.95 115.206 245.879 115.436 246.643C115.665 247.408 115.996 247.99 116.426 248.389C116.861 248.787 117.384 248.987 117.996 248.987Z" fill="#19112B"/>
<path d="M126.729 145.435C126.729 139.441 131.578 134.582 137.56 134.582H187.927C193.909 134.582 198.758 139.441 198.758 145.435V155.204C198.758 161.198 193.909 166.057 187.927 166.057H137.56C131.578 166.057 126.729 161.198 126.729 155.204V145.435Z" fill="white"/>
<path d="M147.53 156.832V155.721L151.69 151.158C152.179 150.624 152.581 150.159 152.897 149.764C153.213 149.366 153.446 148.992 153.598 148.642C153.754 148.289 153.832 147.919 153.832 147.532C153.832 147.088 153.725 146.704 153.512 146.379C153.303 146.054 153.016 145.803 152.65 145.627C152.285 145.45 151.875 145.361 151.42 145.361C150.935 145.361 150.513 145.462 150.152 145.664C149.795 145.861 149.518 146.138 149.321 146.496C149.128 146.854 149.032 147.273 149.032 147.754H147.579C147.579 147.014 147.75 146.365 148.09 145.805C148.431 145.246 148.894 144.811 149.481 144.498C150.072 144.186 150.734 144.029 151.469 144.029C152.207 144.029 152.862 144.186 153.432 144.498C154.002 144.811 154.45 145.232 154.774 145.762C155.098 146.293 155.26 146.883 155.26 147.532C155.26 147.997 155.176 148.451 155.008 148.895C154.843 149.335 154.556 149.826 154.146 150.369C153.74 150.907 153.176 151.565 152.454 152.342L149.623 155.376V155.475H155.481V156.832H147.53Z" fill="#19112B"/>
<path d="M162.134 157.004C161.207 157.004 160.417 156.751 159.765 156.246C159.112 155.736 158.614 154.998 158.269 154.032C157.925 153.062 157.752 151.89 157.752 150.517C157.752 149.152 157.925 147.986 158.269 147.02C158.618 146.05 159.119 145.31 159.771 144.8C160.427 144.286 161.215 144.029 162.134 144.029C163.053 144.029 163.839 144.286 164.491 144.8C165.148 145.31 165.648 146.05 165.993 147.02C166.342 147.986 166.516 149.152 166.516 150.517C166.516 151.89 166.344 153.062 165.999 154.032C165.654 154.998 165.156 155.736 164.504 156.246C163.851 156.751 163.061 157.004 162.134 157.004ZM162.134 155.648C163.053 155.648 163.767 155.204 164.276 154.316C164.785 153.428 165.039 152.161 165.039 150.517C165.039 149.423 164.922 148.492 164.688 147.723C164.458 146.955 164.126 146.369 163.691 145.966C163.26 145.563 162.741 145.361 162.134 145.361C161.223 145.361 160.511 145.812 159.999 146.712C159.486 147.608 159.229 148.876 159.229 150.517C159.229 151.61 159.344 152.539 159.574 153.304C159.804 154.069 160.134 154.651 160.565 155.049C161 155.448 161.523 155.648 162.134 155.648Z" fill="#19112B"/>
<path d="M172.966 157.004C172.038 157.004 171.249 156.751 170.596 156.246C169.944 155.736 169.445 154.998 169.101 154.032C168.756 153.062 168.584 151.89 168.584 150.517C168.584 149.152 168.756 147.986 169.101 147.02C169.45 146.05 169.95 145.31 170.602 144.8C171.259 144.286 172.047 144.029 172.966 144.029C173.885 144.029 174.67 144.286 175.323 144.8C175.979 145.31 176.48 146.05 176.824 147.02C177.173 147.986 177.348 149.152 177.348 150.517C177.348 151.89 177.175 153.062 176.831 154.032C176.486 154.998 175.987 155.736 175.335 156.246C174.683 156.751 173.893 157.004 172.966 157.004ZM172.966 155.648C173.885 155.648 174.599 155.204 175.107 154.316C175.616 153.428 175.87 152.161 175.87 150.517C175.87 149.423 175.754 148.492 175.52 147.723C175.29 146.955 174.958 146.369 174.523 145.966C174.092 145.563 173.573 145.361 172.966 145.361C172.055 145.361 171.343 145.812 170.83 146.712C170.317 147.608 170.061 148.876 170.061 150.517C170.061 151.61 170.176 152.539 170.405 153.304C170.635 154.069 170.966 154.651 171.396 155.049C171.831 155.448 172.354 155.648 172.966 155.648Z" fill="#19112B"/>
<path d="M255.624 134.582C255.624 128.588 260.473 123.729 266.455 123.729H316.822C322.804 123.729 327.653 128.588 327.653 134.582V144.35C327.653 150.344 322.804 155.204 316.822 155.204H266.455C260.473 155.204 255.624 150.344 255.624 144.35V134.582Z" fill="white"/>
<path d="M276.13 143.388V142.13L281.669 133.349H282.579V135.297H281.964L277.779 141.933V142.031H285.238V143.388H276.13ZM282.062 145.978V133.349H283.515V145.978H282.062Z" fill="#19112B"/>
<path d="M291.655 146.151C290.728 146.151 289.938 145.898 289.286 145.392C288.634 144.883 288.135 144.145 287.79 143.178C287.446 142.208 287.273 141.037 287.273 139.663C287.273 138.299 287.446 137.133 287.79 136.167C288.139 135.197 288.64 134.457 289.292 133.947C289.949 133.433 290.736 133.176 291.655 133.176C292.574 133.176 293.36 133.433 294.012 133.947C294.669 134.457 295.169 135.197 295.514 136.167C295.863 137.133 296.037 138.299 296.037 139.663C296.037 141.037 295.865 142.208 295.52 143.178C295.176 144.145 294.677 144.883 294.025 145.392C293.372 145.898 292.583 146.151 291.655 146.151ZM291.655 144.794C292.574 144.794 293.288 144.35 293.797 143.462C294.306 142.574 294.56 141.308 294.56 139.663C294.56 138.57 294.443 137.639 294.209 136.87C293.98 136.101 293.647 135.515 293.212 135.112C292.782 134.71 292.263 134.508 291.655 134.508C290.744 134.508 290.033 134.958 289.52 135.859C289.007 136.755 288.751 138.023 288.751 139.663C288.751 140.757 288.865 141.686 289.095 142.451C289.325 143.215 289.655 143.797 290.086 144.196C290.521 144.595 291.044 144.794 291.655 144.794Z" fill="#19112B"/>
<path d="M302.487 146.151C301.56 146.151 300.77 145.898 300.117 145.392C299.465 144.883 298.967 144.145 298.622 143.178C298.277 142.208 298.105 141.037 298.105 139.663C298.105 138.299 298.277 137.133 298.622 136.167C298.971 135.197 299.471 134.457 300.124 133.947C300.78 133.433 301.568 133.176 302.487 133.176C303.406 133.176 304.192 133.433 304.844 133.947C305.5 134.457 306.001 135.197 306.346 136.167C306.694 137.133 306.869 138.299 306.869 139.663C306.869 141.037 306.696 142.208 306.352 143.178C306.007 144.145 305.509 144.883 304.856 145.392C304.204 145.898 303.414 146.151 302.487 146.151ZM302.487 144.794C303.406 144.794 304.12 144.35 304.629 143.462C305.137 142.574 305.392 141.308 305.392 139.663C305.392 138.57 305.275 137.639 305.041 136.87C304.811 136.101 304.479 135.515 304.044 135.112C303.613 134.71 303.094 134.508 302.487 134.508C301.576 134.508 300.864 134.958 300.351 135.859C299.838 136.755 299.582 138.023 299.582 139.663C299.582 140.757 299.697 141.686 299.927 142.451C300.156 143.215 300.487 143.797 300.918 144.196C301.352 144.595 301.876 144.794 302.487 144.794Z" fill="#19112B"/>
<path d="M349.316 208.928C349.316 202.934 354.166 198.074 360.148 198.074H410.514C416.496 198.074 421.346 202.934 421.346 208.928V218.696C421.346 224.69 416.496 229.549 410.514 229.549H360.148C354.166 229.549 349.316 224.69 349.316 218.696V208.928Z" fill="white"/>
<path d="M374.376 220.497C373.564 220.497 372.84 220.357 372.204 220.077C371.572 219.798 371.069 219.409 370.696 218.912C370.327 218.41 370.126 217.828 370.093 217.167H371.644C371.677 217.574 371.816 217.925 372.062 218.221C372.309 218.513 372.631 218.739 373.029 218.899C373.427 219.06 373.868 219.14 374.352 219.14C374.893 219.14 375.373 219.045 375.792 218.856C376.21 218.667 376.539 218.404 376.777 218.067C377.014 217.73 377.133 217.339 377.133 216.895C377.133 216.431 377.019 216.022 376.789 215.668C376.559 215.31 376.223 215.031 375.78 214.829C375.336 214.628 374.795 214.527 374.155 214.527H373.146V213.17H374.155C374.655 213.17 375.094 213.08 375.472 212.899C375.853 212.718 376.151 212.463 376.364 212.134C376.582 211.806 376.69 211.419 376.69 210.975C376.69 210.548 376.596 210.176 376.407 209.859C376.219 209.542 375.952 209.296 375.607 209.119C375.267 208.942 374.865 208.854 374.401 208.854C373.966 208.854 373.556 208.934 373.17 209.094C372.789 209.251 372.477 209.479 372.235 209.779C371.993 210.075 371.861 210.432 371.841 210.852H370.364C370.388 210.19 370.587 209.61 370.961 209.113C371.334 208.611 371.822 208.221 372.425 207.941C373.033 207.662 373.699 207.522 374.426 207.522C375.205 207.522 375.874 207.68 376.432 207.997C376.99 208.309 377.419 208.722 377.718 209.236C378.018 209.75 378.167 210.305 378.167 210.901C378.167 211.612 377.981 212.219 377.607 212.72C377.238 213.222 376.735 213.569 376.1 213.762V213.861C376.896 213.993 377.517 214.332 377.964 214.879C378.412 215.421 378.635 216.094 378.635 216.895C378.635 217.582 378.448 218.198 378.075 218.745C377.706 219.288 377.201 219.715 376.561 220.028C375.921 220.34 375.193 220.497 374.376 220.497Z" fill="#19112B"/>
<path d="M385.263 220.497C384.336 220.497 383.546 220.244 382.894 219.738C382.242 219.228 381.743 218.49 381.398 217.524C381.054 216.554 380.881 215.382 380.881 214.009C380.881 212.644 381.054 211.479 381.398 210.513C381.747 209.542 382.248 208.802 382.9 208.293C383.556 207.779 384.344 207.522 385.263 207.522C386.182 207.522 386.968 207.779 387.62 208.293C388.277 208.802 388.777 209.542 389.122 210.513C389.471 211.479 389.645 212.644 389.645 214.009C389.645 215.382 389.473 216.554 389.128 217.524C388.783 218.49 388.285 219.228 387.633 219.738C386.98 220.244 386.191 220.497 385.263 220.497ZM385.263 219.14C386.182 219.14 386.896 218.696 387.405 217.808C387.914 216.92 388.168 215.654 388.168 214.009C388.168 212.916 388.051 211.984 387.817 211.216C387.588 210.447 387.255 209.861 386.82 209.458C386.389 209.055 385.87 208.854 385.263 208.854C384.352 208.854 383.641 209.304 383.128 210.204C382.615 211.101 382.358 212.369 382.358 214.009C382.358 215.103 382.473 216.032 382.703 216.797C382.933 217.561 383.263 218.143 383.694 218.542C384.129 218.94 384.652 219.14 385.263 219.14Z" fill="#19112B"/>
<path d="M396.095 220.497C395.168 220.497 394.378 220.244 393.725 219.738C393.073 219.228 392.575 218.49 392.23 217.524C391.885 216.554 391.713 215.382 391.713 214.009C391.713 212.644 391.885 211.479 392.23 210.513C392.579 209.542 393.079 208.802 393.732 208.293C394.388 207.779 395.176 207.522 396.095 207.522C397.014 207.522 397.8 207.779 398.452 208.293C399.108 208.802 399.609 209.542 399.954 210.513C400.302 211.479 400.477 212.644 400.477 214.009C400.477 215.382 400.304 216.554 399.96 217.524C399.615 218.49 399.117 219.228 398.464 219.738C397.812 220.244 397.022 220.497 396.095 220.497ZM396.095 219.14C397.014 219.14 397.728 218.696 398.236 217.808C398.745 216.92 399 215.654 399 214.009C399 212.916 398.883 211.984 398.649 211.216C398.419 210.447 398.087 209.861 397.652 209.458C397.221 209.055 396.702 208.854 396.095 208.854C395.184 208.854 394.472 209.304 393.959 210.204C393.446 211.101 393.19 212.369 393.19 214.009C393.19 215.103 393.305 216.032 393.535 216.797C393.764 217.561 394.095 218.143 394.525 218.542C394.96 218.94 395.483 219.14 396.095 219.14Z" fill="#19112B"/>
<path d="M149.475 288.567C149.475 282.573 154.324 277.713 160.306 277.713H283.244C289.226 277.713 294.075 282.573 294.075 288.567V342.834C294.075 348.828 289.226 353.687 283.244 353.687H160.306C154.324 353.687 149.475 348.828 149.475 342.834V288.567Z" fill="#F9ED37"/>
<path d="M201.008 327.963C199.654 327.963 198.434 327.693 197.35 327.153C196.265 326.614 195.396 325.874 194.742 324.933C194.088 323.993 193.73 322.921 193.669 321.719H196.438C196.546 322.79 197.03 323.677 197.892 324.378C198.761 325.072 199.8 325.419 201.008 325.419C201.977 325.419 202.838 325.192 203.592 324.737C204.354 324.282 204.95 323.658 205.381 322.864C205.819 322.062 206.039 321.156 206.039 320.146C206.039 319.113 205.812 318.192 205.358 317.383C204.912 316.566 204.296 315.922 203.512 315.452C202.727 314.982 201.831 314.743 200.823 314.735C200.1 314.727 199.357 314.839 198.596 315.07C197.834 315.294 197.207 315.583 196.715 315.938L194.038 315.614L195.469 303.959H207.747V306.503H197.869L197.038 313.486H197.177C197.661 313.101 198.269 312.781 199 312.527C199.731 312.272 200.492 312.145 201.285 312.145C202.731 312.145 204.019 312.492 205.15 313.186C206.289 313.872 207.181 314.812 207.827 316.007C208.481 317.202 208.808 318.566 208.808 320.1C208.808 321.611 208.47 322.96 207.793 324.147C207.123 325.326 206.2 326.259 205.023 326.945C203.846 327.624 202.508 327.963 201.008 327.963Z" fill="black"/>
<path d="M221.1 327.963C219.362 327.963 217.881 327.489 216.658 326.54C215.435 325.585 214.5 324.201 213.854 322.39C213.207 320.57 212.884 318.373 212.884 315.799C212.884 313.24 213.207 311.054 213.854 309.243C214.508 307.424 215.446 306.036 216.669 305.08C217.9 304.117 219.377 303.635 221.1 303.635C222.824 303.635 224.297 304.117 225.52 305.08C226.751 306.036 227.689 307.424 228.335 309.243C228.989 311.054 229.316 313.24 229.316 315.799C229.316 318.373 228.993 320.57 228.347 322.39C227.701 324.201 226.766 325.585 225.543 326.54C224.32 327.489 222.839 327.963 221.1 327.963ZM221.1 325.419C222.824 325.419 224.162 324.586 225.116 322.921C226.07 321.256 226.547 318.882 226.547 315.799C226.547 313.748 226.328 312.002 225.889 310.561C225.458 309.12 224.835 308.021 224.02 307.266C223.212 306.51 222.239 306.133 221.1 306.133C219.393 306.133 218.058 306.977 217.096 308.665C216.135 310.345 215.654 312.723 215.654 315.799C215.654 317.849 215.869 319.591 216.3 321.025C216.731 322.459 217.35 323.55 218.158 324.297C218.973 325.045 219.954 325.419 221.1 325.419Z" fill="black"/>
<path d="M241.409 327.963C239.671 327.963 238.19 327.489 236.967 326.54C235.744 325.585 234.809 324.201 234.163 322.39C233.517 320.57 233.193 318.373 233.193 315.799C233.193 313.24 233.517 311.054 234.163 309.243C234.817 307.424 235.755 306.036 236.978 305.08C238.209 304.117 239.686 303.635 241.409 303.635C243.133 303.635 244.606 304.117 245.829 305.08C247.06 306.036 247.998 307.424 248.645 309.243C249.298 311.054 249.625 313.24 249.625 315.799C249.625 318.373 249.302 320.57 248.656 322.39C248.01 324.201 247.075 325.585 245.852 326.54C244.629 327.489 243.148 327.963 241.409 327.963ZM241.409 325.419C243.133 325.419 244.471 324.586 245.425 322.921C246.379 321.256 246.856 318.882 246.856 315.799C246.856 313.748 246.637 312.002 246.198 310.561C245.767 309.12 245.144 308.021 244.329 307.266C243.521 306.51 242.548 306.133 241.409 306.133C239.702 306.133 238.367 306.977 237.405 308.665C236.444 310.345 235.963 312.723 235.963 315.799C235.963 317.849 236.178 319.591 236.609 321.025C237.04 322.459 237.659 323.55 238.467 324.297C239.282 325.045 240.263 325.419 241.409 325.419Z" fill="black"/>
<path d="M278.911 277.847C279.182 276.128 280.442 271.335 279.142 268.079L282.161 271.134L284.598 273.07L287.306 274.828L291.097 276.49L294.617 276.612L298.137 276.085L301.116 275.247L304.365 273.792L308.244 271.335L310.594 269.42L311.677 267.403L308.969 276.49C301.387 277.576 291.638 280.332 290.555 280.614C287.035 278.172 287.577 277.847 278.911 277.847Z" fill="#F2A295"/>
<path d="M252.645 283.002H279.724C290.826 281.374 306.532 274.893 316.822 276.612C321.696 277.426 362.314 317.462 374.499 319.09C380.998 329.4 391.83 346.766 380.998 357.619C340.38 356.534 354.19 331.028 314.114 295.212C308.788 296.298 298.354 298.74 299.22 299.825C300.304 301.182 297.325 309.05 288.66 307.694C286.132 309.322 281.078 311.221 281.078 305.794C280.536 305.523 274.037 303.895 273.496 299.825C272.954 295.755 275.391 294.127 277.016 290.057C266.906 290.78 247.879 290.383 252.645 283.002Z" fill="#F2A295"/>
<path d="M292.451 205.672C294.888 202.958 318.176 195.632 321.967 217.882C322.29 219.51 323.321 236.333 321.967 249.085C320.613 261.838 306.532 278.39 291.097 276.49C278.099 271.877 265.643 254.783 272.142 229.278C291.097 214.897 290.014 208.385 292.451 205.672Z" fill="#F2A295"/>
<path d="M230.982 254.108C236.398 253.837 240.73 269.573 230.17 277.713C213.02 278.075 176.229 277.713 163.014 277.713C160.126 279.974 153.32 285.745 149.204 290.737C144.601 309.322 144.601 319.361 144.601 335.507C149.565 344.823 158.465 363.455 154.349 363.455C152.183 363.907 142.976 363.046 137.289 360.604C131.874 357.891 129.707 351.65 126.729 343.51C126.187 345.952 129.978 281.646 141.893 264.009C144.492 260.97 199.841 257.635 230.982 254.108Z" fill="#F6AEA3"/>
<path d="M299.22 299.149C299.87 298.281 309.24 296.255 313.843 295.35C322.508 301.591 335.235 318.142 337.672 321.941C337.943 332.704 334.802 353.958 320.071 352.873C314.872 351.137 298.589 350.702 291.097 350.702C292.09 349.617 294.075 346.904 294.075 344.733V307.289C296.783 307.018 298.408 301.862 299.22 299.149Z" fill="#F1D07C"/>
<path d="M316.822 276.628H308.427C309.059 274.367 310.594 269.411 311.677 267.674C326.028 253.022 321.967 239.184 321.425 216.392C317.363 194.414 294.346 204.996 292.18 206.895C285.681 222.361 280.265 223.175 272.142 231.044C267.538 249.766 275.391 263.466 280.265 268.079C281.132 271.769 279.503 276.4 279.142 277.847L254.27 277.713C255.263 269.392 256.653 252.713 254.27 252.061C255.894 251.609 262.61 241.626 272.142 206.895C290.284 169.993 331.986 193.057 326.57 202.554C349.045 227.516 331.986 258.449 374.229 318.956C366.917 320.313 320.342 277.713 316.822 276.628Z" fill="#F1D07C"/>
<path d="M230.17 277.713C236.939 273.1 238.835 257.363 230.711 253.836C236.127 253.836 248.529 253.456 254.811 251.937C257.844 251.937 256.075 269.302 254.811 277.713L230.17 277.713Z" fill="white"/>
<path d="M209.861 219.919C207.153 215.849 198.487 216.392 197.404 206.352C196.772 204.497 196.917 199.919 202.549 196.446C208.182 192.973 213.561 195.996 215.547 197.941C217.443 200.926 220.15 201.74 223.941 208.523C225.693 212.781 232.129 216.536 235.315 221.556L236.668 221.004V224.387C237.589 227.269 237.241 230.58 234.502 234.571C226.649 237.827 226.108 233.214 221.234 232.4C216.359 231.586 212.568 223.989 209.861 219.919Z" fill="white"/>
<path d="M221.504 232.672C227.281 236.109 238.564 239.509 237.481 225.617C250.208 239.998 245.063 244.068 250.208 252.479C249.775 253.13 235.946 253.474 229.086 253.565C222.588 254.198 208.923 256.65 205.023 256.65C211.955 252.526 216.63 241.988 218.255 237.827L221.504 232.672Z" fill="#3A1277"/>
<path d="M224.212 254.107L221.775 232.943L229.086 253.565L224.212 254.107Z" fill="#170336"/>
<path d="M209.59 216.12C197.675 212.593 192.259 203.096 204.174 195.77C216.901 193.057 216.63 202.825 221.504 207.98C223.671 214.764 235.856 218.562 226.379 227.245C215.547 235.928 215.547 218.291 209.59 216.12Z" fill="#170336"/>
<path d="M240.46 218.291L236.939 221.004V225.074C239.106 226.702 243.438 231.044 247.229 241.897C247.229 236.47 242.897 220.19 240.46 218.291Z" fill="#170336"/>
<defs>
<linearGradient id="paint0_linear_408_860" x1="140.373" y1="414.567" x2="495.586" y2="119.153" gradientUnits="userSpaceOnUse">
<stop stop-color="#1F0050"/>
<stop offset="0.46875" stop-color="#7208C6"/>
<stop offset="1" stop-color="#7000FE"/>
</linearGradient>
</defs>
</svg>
