<svg width="495" height="496" viewBox="0 0 495 496" fill="none" xmlns="http://www.w3.org/2000/svg">
<path d="M495 248C495 384.967 384.19 496 247.5 496C110.81 496 0 384.967 0 248C0 111.033 110.81 0 247.5 0C384.19 0 495 111.033 495 248Z" fill="url(#paint0_linear_408_861)"/>
<path d="M232.65 196.328C232.65 214.819 217.691 229.808 199.238 229.808C180.784 229.808 165.825 214.819 165.825 196.328C165.825 177.838 180.784 162.848 199.238 162.848C217.691 162.848 232.65 177.838 232.65 196.328Z" fill="white"/>
<path d="M190.8 206.098C189.562 206.098 188.459 205.885 187.491 205.459C186.528 205.034 185.762 204.442 185.194 203.684C184.631 202.92 184.325 202.034 184.275 201.025H186.637C186.687 201.645 186.9 202.181 187.275 202.632C187.65 203.076 188.141 203.421 188.747 203.665C189.353 203.909 190.025 204.032 190.762 204.032C191.587 204.032 192.319 203.887 192.956 203.599C193.594 203.311 194.094 202.911 194.456 202.397C194.819 201.883 195 201.288 195 200.612C195 199.904 194.825 199.281 194.475 198.743C194.125 198.198 193.612 197.772 192.938 197.465C192.262 197.158 191.438 197.005 190.462 197.005H188.925V194.938H190.462C191.225 194.938 191.894 194.8 192.469 194.525C193.05 194.249 193.503 193.861 193.828 193.36C194.159 192.859 194.325 192.27 194.325 191.594C194.325 190.943 194.181 190.376 193.894 189.894C193.606 189.411 193.2 189.036 192.675 188.766C192.156 188.497 191.544 188.362 190.837 188.362C190.175 188.362 189.55 188.485 188.962 188.729C188.381 188.967 187.906 189.314 187.537 189.772C187.169 190.222 186.969 190.767 186.938 191.406H184.688C184.725 190.398 185.028 189.515 185.597 188.757C186.166 187.993 186.909 187.398 187.828 186.972C188.753 186.546 189.769 186.333 190.875 186.333C192.062 186.333 193.081 186.574 193.931 187.057C194.781 187.533 195.434 188.162 195.891 188.945C196.347 189.728 196.575 190.573 196.575 191.481C196.575 192.565 196.291 193.488 195.722 194.252C195.159 195.016 194.394 195.546 193.425 195.84V195.99C194.637 196.191 195.584 196.707 196.266 197.54C196.947 198.367 197.288 199.391 197.288 200.612C197.288 201.658 197.003 202.597 196.434 203.43C195.872 204.257 195.103 204.908 194.128 205.384C193.153 205.86 192.044 206.098 190.8 206.098Z" fill="#3A1277"/>
<path d="M207.384 206.098C205.972 206.098 204.769 205.713 203.775 204.943C202.781 204.166 202.022 203.042 201.497 201.57C200.972 200.092 200.709 198.307 200.709 196.216C200.709 194.137 200.972 192.361 201.497 190.889C202.028 189.411 202.791 188.284 203.784 187.508C204.784 186.725 205.984 186.333 207.384 186.333C208.784 186.333 209.981 186.725 210.975 187.508C211.975 188.284 212.738 189.411 213.262 190.889C213.794 192.361 214.059 194.137 214.059 196.216C214.059 198.307 213.797 200.092 213.272 201.57C212.747 203.042 211.988 204.166 210.994 204.943C210 205.713 208.797 206.098 207.384 206.098ZM207.384 204.032C208.784 204.032 209.872 203.355 210.647 202.002C211.422 200.65 211.809 198.721 211.809 196.216C211.809 194.55 211.631 193.131 211.275 191.96C210.925 190.789 210.419 189.897 209.756 189.283C209.1 188.669 208.309 188.362 207.384 188.362C205.997 188.362 204.913 189.048 204.131 190.42C203.35 191.785 202.959 193.717 202.959 196.216C202.959 197.882 203.134 199.297 203.484 200.462C203.834 201.627 204.337 202.513 204.994 203.12C205.656 203.728 206.453 204.032 207.384 204.032Z" fill="#3A1277"/>
<path d="M170.775 173.595L173.662 168.635C167.475 169.186 154.852 170.454 153.863 171.115C152.625 171.942 145.2 185.168 145.2 189.302C148.087 193.986 153.863 205.174 153.863 212.448C156.337 236.422 170.775 286.435 173.662 287.675C176.55 288.915 180.675 287.262 185.625 287.675C190.575 288.088 218.212 258.328 218.625 259.982C219.037 261.635 265.65 317.027 275.55 321.568C281.058 324.095 300.712 306.831 310.2 297.187C312.675 290.849 316.883 274.531 312.262 263.288C311.85 269.488 298.65 272.382 295.35 272.382C291.225 277.617 282.068 288.915 278.438 292.222C255.75 282.715 233.887 255.352 227.287 248.408C225.637 243.862 223.85 232.702 227.287 227.328C230.725 221.955 235.867 212.448 228.938 217.408C212.438 239.315 185.625 230.222 176.962 225.262C179.603 231.214 196.35 236.422 200.475 242.622L185.625 257.088C174.9 245.515 163.762 219.723 163.762 212.448C165.55 212.035 166.65 207.488 163.762 203.355C162.525 195.915 159.225 186.822 163.762 180.208C166.1 179.106 172.012 180.208 170.775 173.595Z" fill="#F6AEA3"/>
<path d="M271.425 170.707C268.812 162.44 269.775 145.493 282.562 141.773C287.65 143.564 297.825 150.2 297.825 154.168C297.825 159.128 306.9 181.862 307.725 184.342C308.55 186.822 306.075 202.115 299.475 207.488C298.925 211.622 298.897 220.885 301.538 221.547C295.927 224.192 284.625 221.96 281.325 220.307C283.965 219.645 283.663 211.071 283.387 207.488C276.375 192.608 267.3 187.653 271.425 170.707Z" fill="#F6AEA3"/>
<path d="M282.975 219.888C285.45 221.542 297.413 223.195 299.475 221.128C299.475 223.112 305.25 218.924 308.137 216.582C311.025 220.302 300.217 227.659 299.887 238.902C299.062 246.342 306.9 250.475 305.663 255.022C304.425 259.568 289.988 283.965 278.85 292.227C275.138 292.227 264.825 286.027 261.112 281.475C252.45 276.107 226.875 249.648 227.7 248.408C225.225 245.52 223.87 233.853 225.637 228.987C227.287 224.445 231.825 217.827 232.65 217.827C232.65 215.347 231 216.173 228.113 218.24C230.587 214.933 229.35 214.107 230.587 212.453L247.087 212.04L256.987 213.28C255.337 215.76 254.236 215.76 252.45 221.128C249.15 231.048 256.575 238.488 256.163 246.342C256.163 250.888 250.387 255.848 250.387 260.395C250.387 268.662 261.112 272.795 261.112 281.475C268.675 269.213 283.635 239.728 282.975 219.888Z" fill="white"/>
<path d="M297.413 324.462C297.275 319.915 299.062 308.92 307.312 301.315C297.413 307.52 285.862 319.507 276.375 321.573C272.813 322.349 239.25 284.373 223.162 265.773C226.05 286.44 219.863 311.566 216.562 317.848C239.992 334.712 280.225 329.284 297.413 324.462Z" fill="white"/>
<path d="M272.663 170.702C272.663 162.022 268.538 145.902 282.562 143.422C287.1 144.662 296.587 149.126 298.237 157.062C300.3 166.982 299.062 176.907 306.487 186.413C307.45 192.751 306.487 198.395 298.237 208.315C296.258 216.582 299.062 220.577 300.712 221.542H303.6C306.075 221.542 306.735 221.877 304.425 224.853C287.1 249.653 306.487 250.48 302.362 257.507C296.422 260.483 283.8 268.253 287.512 281.48L289.987 293.88C293.7 288.507 303.188 302.147 301.538 312.067C308.962 307.933 315.975 288.92 327.525 293.88C336.188 277.347 345.262 224.853 343.2 210.795C341.568 199.671 333.712 137.222 306.9 134.328C280.087 131.435 272.662 144.662 268.538 150.448C265.237 155.078 267.163 177.728 268.538 188.475C267.987 195.364 263.175 207.576 253.275 214.52C251.488 216.449 248.985 226.589 253.275 238.493C258.638 253.373 249.15 252.96 249.563 261.227C249.975 269.493 259.462 271.56 261.112 281.48C265.65 273.213 283.8 255.853 283.8 220.72C286.275 218.24 284.707 211.291 285.037 208.315C283.8 201.288 268.95 190.955 272.663 170.702Z" fill="#F1D07C"/>
<path d="M316.387 384.4C313.087 358.608 300.987 336.035 297 324.875C275 329.422 234.3 333.142 216.15 318.262L202.95 386.88C244.2 377.373 266.062 384.4 316.387 384.4Z" fill="#3A1277"/>
<path d="M402.263 441.546C359.88 475.617 306.065 496 247.5 496C199.916 496 155.469 482.545 117.741 459.224C146.613 407.2 202.029 372 265.65 372C321.766 372 371.498 399.385 402.263 441.546Z" fill="#F57C1F"/>
<defs>
<linearGradient id="paint0_linear_408_861" x1="140.373" y1="414.567" x2="495.586" y2="119.153" gradientUnits="userSpaceOnUse">
<stop stop-color="#1F0050"/>
<stop offset="0.46875" stop-color="#7208C6"/>
<stop offset="1" stop-color="#7000FE"/>
</linearGradient>
</defs>
</svg>
