<svg width="543" height="553" viewBox="0 0 543 553" fill="none" xmlns="http://www.w3.org/2000/svg">
<path d="M543 439C543 501.96 426.594 553 283 553C139.406 553 23 501.96 23 439C23 376.04 139.406 325 283 325C426.594 325 543 376.04 543 439Z" fill="#F57C1F"/>
<path d="M405 5.15226C405 2.30674 402.707 0 399.877 0L6.72332 86.4048C6.72332 86.4048 0 87.9106 0 93.4892C0 99.0678 0 338.222 0 338.222C0 348.526 12.2183 344.018 15.0474 344.018L399.877 257.613C402.707 257.613 405 255.307 405 252.461V5.15226Z" fill="#4C2E88"/>
<path d="M236.736 58.8945C236.736 56.0462 234.444 53.7372 231.617 53.7372L176.583 65.7541C173.755 65.7541 171.463 68.0631 171.463 70.9115V99.2767C171.463 102.125 173.755 104.434 176.583 104.434L231.617 92.4171C234.444 92.4171 236.736 90.1081 236.736 87.2598V58.8945Z" fill="white"/>
<path d="M236.736 104.434C236.736 101.586 234.444 99.2767 231.617 99.2767L176.583 111.294C173.755 111.294 171.463 113.603 171.463 116.451V144.816C171.463 147.665 173.755 149.974 176.583 149.974L231.617 137.957C234.444 137.957 236.736 135.648 236.736 132.799V104.434Z" fill="white"/>
<path d="M236.736 149.974C236.736 147.125 234.444 144.816 231.617 144.816L176.583 156.833C173.755 156.833 171.463 159.142 171.463 161.99V190.356C171.463 193.204 173.755 195.513 176.583 195.513L231.617 183.496C234.444 183.496 236.736 181.187 236.736 178.339V149.974Z" fill="white"/>
<path d="M236.736 244.326C236.736 241.478 234.444 239.169 231.617 239.169L176.583 251.186C173.755 251.186 171.463 253.495 171.463 256.343V284.708C171.463 287.557 173.755 289.866 176.583 289.866L231.617 277.849C234.444 277.849 236.736 275.54 236.736 272.691V244.326Z" fill="white"/>
<path d="M236.736 197.05C236.736 194.201 234.444 191.892 231.617 191.892L176.583 203.909C173.755 203.909 171.463 206.218 171.463 209.067V237.432C171.463 240.28 173.755 242.589 176.583 242.589L231.617 230.572C234.444 230.572 236.736 228.263 236.736 225.415V197.05Z" fill="white"/>
<path d="M161.225 76.8545C161.225 74.0061 158.933 71.6971 156.105 71.6971L101.071 83.7141C98.2439 83.7141 95.9519 86.0231 95.9519 88.8714V117.237C95.9519 120.085 98.2439 122.394 101.071 122.394L156.105 110.377C158.933 110.377 161.225 108.068 161.225 105.22V76.8545Z" fill="white"/>
<path d="M161.225 122.394C161.225 119.546 158.933 117.237 156.105 117.237L101.071 129.254C98.2439 129.254 95.9519 131.563 95.9519 134.411V162.776C95.9519 165.624 98.2439 167.933 101.071 167.933L156.105 155.917C158.933 155.917 161.225 153.608 161.225 150.759V122.394Z" fill="#FCC02A"/>
<path d="M161.225 167.933C161.225 165.085 158.933 162.776 156.105 162.776L101.071 174.793C98.2439 174.793 95.9519 177.102 95.9519 179.95V208.316C95.9519 211.164 98.2439 213.473 101.071 213.473L156.105 201.456C158.933 201.456 161.225 199.147 161.225 196.299V167.933Z" fill="white"/>
<path d="M161.225 262.286C161.225 259.438 158.933 257.129 156.105 257.129L101.071 269.146C98.2439 269.146 95.9519 271.455 95.9519 274.303V302.668C95.9519 305.517 98.2439 307.826 101.071 307.826L156.105 295.809C158.933 295.809 161.225 293.5 161.225 290.651V262.286Z" fill="white"/>
<path d="M161.225 215.01C161.225 212.161 158.933 209.852 156.105 209.852L101.071 221.869C98.2439 221.869 95.9519 224.178 95.9519 227.027V255.392C95.9519 258.24 98.2439 260.549 101.071 260.549L156.105 248.532C158.933 248.532 161.225 246.223 161.225 243.375V215.01Z" fill="white"/>
<path d="M309.048 41.7202C309.048 38.8719 306.756 36.5629 303.929 36.5629L248.895 48.5799C246.067 48.5799 243.775 50.8889 243.775 53.7372V82.1024C243.775 84.9507 246.067 87.2598 248.895 87.2598L303.929 75.2428C306.756 75.2428 309.048 72.9338 309.048 70.0855V41.7202Z" fill="white"/>
<path d="M309.048 87.2598C309.048 84.4114 306.756 82.1024 303.929 82.1024L248.895 94.1194C246.067 94.1194 243.775 96.4284 243.775 99.2767V127.642C243.775 130.49 246.067 132.799 248.895 132.799L303.929 120.782C306.756 120.782 309.048 118.473 309.048 115.625V87.2598Z" fill="white"/>
<path d="M309.048 132.799C309.048 129.951 306.756 127.642 303.929 127.642L248.895 139.659C246.067 139.659 243.775 141.968 243.775 144.816V173.181C243.775 176.03 246.067 178.339 248.895 178.339L303.929 166.322C306.756 166.322 309.048 164.013 309.048 161.165V132.799Z" fill="white"/>
<path d="M309.048 227.152C309.048 224.304 306.756 221.995 303.929 221.995L248.895 234.012C246.067 234.012 243.775 236.321 243.775 239.169V267.534C243.775 270.382 246.067 272.691 248.895 272.691L303.929 260.675C306.756 260.675 309.048 258.366 309.048 255.517V227.152Z" fill="white"/>
<path d="M309.048 179.875C309.048 177.027 306.756 174.718 303.929 174.718L248.895 186.735C246.067 186.735 243.775 189.044 243.775 191.892V220.258C243.775 223.106 246.067 225.415 248.895 225.415L303.929 213.398C306.756 213.398 309.048 211.089 309.048 208.241V179.875Z" fill="white"/>
<path d="M88.2727 94.0287C88.2727 91.1804 85.9807 88.8714 83.1533 88.8714L28.1194 100.888C25.292 100.888 23 103.197 23 106.046V134.411C23 137.259 25.292 139.568 28.1194 139.568L83.1533 127.551C85.9807 127.551 88.2727 125.242 88.2727 122.394V94.0287Z" fill="white"/>
<path d="M88.2727 139.568C88.2727 136.72 85.9807 134.411 83.1533 134.411L28.1194 146.428C25.292 146.428 23 148.737 23 151.585V179.95C23 182.799 25.292 185.108 28.1194 185.108L83.1533 173.091C85.9807 173.091 88.2727 170.782 88.2727 167.933V139.568Z" fill="white"/>
<path d="M88.2727 185.108C88.2727 182.259 85.9807 179.95 83.1533 179.95L28.1194 191.967C25.292 191.967 23 194.276 23 197.125V225.49C23 228.338 25.292 230.647 28.1194 230.647L83.1533 218.63C85.9807 218.63 88.2727 216.321 88.2727 213.473V185.108Z" fill="white"/>
<path d="M88.2727 279.46C88.2727 276.612 85.9807 274.303 83.1533 274.303L28.1194 286.32C25.292 286.32 23 288.629 23 291.477V319.843C23 322.691 25.292 325 28.1194 325L83.1533 312.983C85.9807 312.983 88.2727 310.674 88.2727 307.826V279.46Z" fill="white"/>
<path d="M88.2727 232.184C88.2727 229.336 85.9807 227.027 83.1533 227.027L28.1194 239.044C25.292 239.044 23 241.353 23 244.201V272.566C23 275.414 25.292 277.723 28.1194 277.723L83.1533 265.707C85.9807 265.707 88.2727 263.398 88.2727 260.549V232.184Z" fill="white"/>
<path d="M382 26.1573C382 23.309 379.708 21 376.881 21L321.847 33.017C319.019 33.017 316.727 35.326 316.727 38.1743V66.5395C316.727 69.3878 319.019 71.6968 321.847 71.6968L376.881 59.6799C379.708 59.6799 382 57.3709 382 54.5226V26.1573Z" fill="white"/>
<path d="M382 71.6968C382 68.8485 379.708 66.5395 376.881 66.5395L321.847 78.5565C319.019 78.5565 316.727 80.8655 316.727 83.7138V112.079C316.727 114.927 319.019 117.236 321.847 117.236L376.881 105.219C379.708 105.219 382 102.91 382 100.062V71.6968Z" fill="white"/>
<path d="M382 117.236C382 114.388 379.708 112.079 376.881 112.079L321.847 124.096C319.019 124.096 316.727 126.405 316.727 129.253V157.619C316.727 160.467 319.019 162.776 321.847 162.776L376.881 150.759C379.708 150.759 382 148.45 382 145.602V117.236Z" fill="white"/>
<path d="M382 211.589C382 208.741 379.708 206.432 376.881 206.432L321.847 218.449C319.019 218.449 316.727 220.758 316.727 223.606V251.971C316.727 254.82 319.019 257.129 321.847 257.129L376.881 245.112C379.708 245.112 382 242.803 382 239.954V211.589Z" fill="white"/>
<path d="M382 164.313C382 161.464 379.708 159.155 376.881 159.155L321.847 171.172C319.019 171.172 316.727 173.481 316.727 176.33V204.695C316.727 207.543 319.019 209.852 321.847 209.852L376.881 197.835C379.708 197.835 382 195.526 382 192.678V164.313Z" fill="white"/>
<path d="M490 409.996L416 376V425.004L490 459V409.996Z" fill="#DFBEDB"/>
<path d="M438.001 434.5C438.001 442.508 444.716 449 453.001 449C461.285 449 468.001 442.508 468.001 434.5C468.001 426.492 461.285 420 453.001 420C444.716 420 438.001 426.492 438.001 434.5Z" fill="url(#paint0_linear_408_852)"/>
<path d="M410 463.5C410 471.508 416.268 478 424 478C431.732 478 438 471.508 438 463.5C438 455.492 431.732 449 424 449C416.268 449 410 455.492 410 463.5Z" fill="#783294"/>
<path d="M423 440.5C423 448.508 429.268 455 437 455C444.732 455 451 448.508 451 440.5C451 432.492 444.732 426 437 426C429.268 426 423 432.492 423 440.5Z" fill="#C894C4"/>
<path d="M490 409.123L416 468.929V518L490 458.194V409.123Z" fill="#4C2E88"/>
<path d="M416 376L342 435.806V484.877L416 425.071V376Z" fill="#4C2E88"/>
<path d="M394 431.5C394 439.508 400.492 446 408.5 446C416.509 446 423 439.508 423 431.5C423 423.492 416.509 417 408.5 417C400.492 417 394 423.492 394 431.5Z" fill="#C894C4"/>
<path d="M388 460C388 468.284 394.492 475 402.5 475C410.509 475 417 468.284 417 460C417 451.716 410.509 445 402.5 445C394.492 445 388 451.716 388 460Z" fill="#C894C4"/>
<path d="M331.647 401.306C337.862 398.718 344.982 401.665 347.55 407.888C350.016 413.864 347.387 420.688 341.67 423.512C342.561 424.302 343.487 425.046 344.442 425.74C350.788 421.827 353.59 413.89 350.716 406.926C348.492 401.535 343.453 398.149 337.932 397.704C335.89 398.046 334.144 398.201 332.771 398.154C332.056 398.339 331.345 398.577 330.642 398.869C330.175 399.064 329.723 399.278 329.285 399.51C329.39 400.447 329.531 401.386 329.709 402.323C330.313 401.933 330.96 401.592 331.647 401.306Z" fill="#FFCC33"/>
<path d="M390.145 375.521C382.251 378.808 378.439 387.744 381.632 395.481C384.33 402.02 391.169 405.609 397.989 404.578C398.21 403.44 398.378 402.286 398.491 401.122C392.806 402.433 386.849 399.487 384.547 393.91C381.979 387.687 384.936 380.545 391.15 377.957C391.701 377.728 392.259 377.542 392.821 377.398C392.325 376.61 391.803 375.845 391.257 375.105C390.884 375.229 390.513 375.368 390.145 375.521Z" fill="#FFCC33"/>
<path d="M361.346 390.367C377.639 383.583 389.777 375.493 388.459 372.298C388.33 371.987 388.079 371.734 387.716 371.536L329.447 395.798C329.329 396.196 329.33 396.553 329.458 396.864C329.792 397.673 330.955 398.091 332.771 398.154C334.492 397.708 336.235 397.567 337.932 397.704C343.863 396.71 352.293 394.136 361.346 390.367Z" fill="#E65425"/>
<path d="M388.459 372.298C389.777 375.493 377.639 383.583 361.346 390.367C352.293 394.136 343.863 396.71 337.932 397.704C343.453 398.149 348.492 401.535 350.716 406.926C353.59 413.89 350.788 421.827 344.442 425.74C350.092 429.843 356.782 432.218 363.65 432.483C363.652 432.336 363.665 432.187 363.688 432.036C363.204 431.61 362.833 431.107 362.594 430.528C361.067 426.828 365.548 421.448 372.603 418.51C379.657 415.573 386.614 416.191 388.141 419.891C388.379 420.47 388.471 421.089 388.429 421.734C388.629 421.881 388.805 422.044 388.956 422.221C393.58 417.382 396.695 411.232 397.989 404.578C391.169 405.609 384.33 402.02 381.632 395.481C378.439 387.744 382.251 378.808 390.145 375.521C390.513 375.368 390.884 375.229 391.257 375.105C390.28 373.782 389.226 372.537 388.104 371.375L387.716 371.536C388.079 371.734 388.33 371.987 388.459 372.298Z" fill="#FFCC33"/>
<path d="M347.55 407.888C344.982 401.665 337.862 398.718 331.647 401.306C330.96 401.592 330.313 401.933 329.709 402.323C330.182 404.818 330.917 407.307 331.926 409.754C334.185 415.227 337.568 419.873 341.67 423.512C347.387 420.688 350.016 413.864 347.55 407.888Z" fill="#FFCC33"/>
<path d="M391.15 377.957C384.936 380.545 381.979 387.687 384.547 393.91C386.849 399.487 392.806 402.433 398.491 401.122C399.064 395.234 398.232 389.072 395.792 383.161C394.951 381.122 393.953 379.198 392.821 377.398C392.259 377.542 391.701 377.728 391.15 377.957Z" fill="#FFCC33"/>
<path d="M388.141 419.891C386.614 416.191 379.657 415.573 372.603 418.51C365.548 421.448 361.067 426.828 362.594 430.528C362.833 431.107 363.204 431.61 363.688 432.036C364.13 429.081 368.41 425.252 374.362 422.774C380.314 420.295 386.036 419.96 388.429 421.734C388.471 421.089 388.379 420.47 388.141 419.891Z" fill="#FFCC33"/>
<path d="M381.45 422.677L369.893 427.489L371.678 431.814C373.7 431.393 375.709 430.777 377.682 429.956C379.655 429.134 381.509 428.142 383.235 427.003L381.45 422.677Z" fill="#FFCC33"/>
<path d="M387.716 371.536C384.343 369.705 371.278 372.671 356.571 378.795C341.863 384.919 330.541 392.107 329.447 395.798L387.716 371.536Z" fill="#E65425"/>
<path d="M371.678 431.814C369.228 432.324 366.759 432.548 364.308 432.502C366.144 433.68 369.067 434.048 372.392 433.544L371.678 431.814Z" fill="#E65425"/>
<path d="M388.189 422.998C386.682 424.476 385.027 425.819 383.235 427.003L383.882 428.57C386.088 426.817 387.616 424.85 388.189 422.998Z" fill="#E65425"/>
<path fill-rule="evenodd" clip-rule="evenodd" d="M329.059 395.96L329.447 395.798C329.329 396.196 329.33 396.553 329.458 396.864C329.792 397.673 330.955 398.091 332.771 398.154C332.056 398.339 331.345 398.577 330.642 398.869C330.175 399.064 329.723 399.278 329.285 399.51C329.152 398.324 329.077 397.139 329.059 395.96ZM329.285 399.51C329.39 400.447 329.531 401.386 329.709 402.323C324.847 405.461 322.76 411.723 325.044 417.258C327.612 423.481 334.732 426.428 340.946 423.841C341.193 423.738 341.434 423.628 341.67 423.512C342.561 424.302 343.487 425.046 344.442 425.74C343.738 426.173 342.991 426.558 342.203 426.886C334.309 430.173 325.321 426.566 322.129 418.829C319.125 411.55 322.322 403.209 329.285 399.51ZM337.932 397.704C336.235 397.567 334.492 397.708 332.771 398.154C334.144 398.201 335.89 398.046 337.932 397.704ZM363.688 432.036C363.665 432.187 363.652 432.336 363.65 432.483C363.644 432.866 363.709 433.231 363.851 433.574C364.753 435.76 368.516 436.406 373.194 435.488L386.43 467.565C384.589 468.804 383.478 469.991 383.531 470.796C381.161 472.563 379.9 474.195 380.333 475.243C381.165 477.261 387.968 476.346 395.526 473.199C403.085 470.051 408.537 465.864 407.704 463.846C407.235 462.711 404.879 462.504 401.562 463.099C400.994 462.673 399.722 462.615 398.042 462.886L384.696 430.544C388.298 427.957 390.256 425.019 389.397 422.937C389.29 422.676 389.142 422.437 388.956 422.221C388.805 422.044 388.629 421.881 388.429 421.734C386.036 419.96 380.314 420.295 374.362 422.774C368.41 425.252 364.13 429.081 363.688 432.036ZM397.989 404.578C399.237 404.39 400.484 404.046 401.706 403.538C409.6 400.25 413.412 391.314 410.219 383.578C407.176 376.202 398.866 372.58 391.257 375.105C391.803 375.845 392.325 376.61 392.821 377.398C398.592 375.918 404.712 378.868 407.052 384.539C409.62 390.762 406.664 397.905 400.449 400.492C399.804 400.761 399.15 400.97 398.491 401.122C398.378 402.286 398.21 403.44 397.989 404.578ZM369.893 427.489L381.45 422.677L383.235 427.003C385.027 425.819 386.682 424.476 388.189 422.998C387.616 424.85 386.088 426.817 383.882 428.57C382.285 429.837 380.334 430.992 378.132 431.909C376.173 432.725 374.221 433.267 372.392 433.544C369.067 434.048 366.144 433.68 364.308 432.502C366.759 432.548 369.228 432.324 371.678 431.814L369.893 427.489Z" fill="#FCC02A"/>
<path d="M383.235 427.003C381.509 428.142 379.655 429.134 377.682 429.956C375.709 430.777 373.7 431.393 371.678 431.814L372.392 433.544C374.221 433.267 376.173 432.725 378.132 431.909C380.334 430.992 382.285 429.837 383.882 428.57L383.235 427.003Z" fill="#E65425"/>
<path d="M379 442.5C379 450.508 385.716 457 394 457C402.285 457 409 450.508 409 442.5C409 434.492 402.285 428 394 428C385.716 428 379 434.492 379 442.5Z" fill="url(#paint1_linear_408_852)"/>
<path d="M410 424C410 431.732 416.268 438 424 438C431.732 438 438 431.732 438 424C438 416.268 431.732 410 424 410C416.268 410 410 416.268 410 424Z" fill="url(#paint2_linear_408_852)"/>
<path d="M404 440.5C404 448.508 410.492 455 418.5 455C426.509 455 433 448.508 433 440.5C433 432.492 426.509 426 418.5 426C410.492 426 404 432.492 404 440.5Z" fill="#913E98"/>
<path d="M400 454.5C400 462.508 406.492 469 414.5 469C422.509 469 429 462.508 429 454.5C429 446.492 422.509 440 414.5 440C406.492 440 400 446.492 400 454.5Z" fill="url(#paint3_linear_408_852)"/>
<path d="M416 467.996L342 434V483.004L416 517V467.996Z" fill="#DFBEDB"/>
<path d="M232.026 61.2697L224.746 62.223L257.484 308.429L264.926 307.475L232.026 61.2697Z" fill="#5E4139"/>
<path d="M224.911 62.2219L222 60.6349L254.834 309.096L257.576 308.745L224.911 62.2219Z" fill="#4C2E88"/>
<path d="M265 306.318L257.576 306.831V439H265L265 306.318Z" fill="#5E4139"/>
<path d="M257.576 308.858L254.665 307.588V437.095L257.576 439V308.858Z" fill="#4C2E88"/>
<path d="M227.947 60L222 60.6349L224.817 62.5394L232.026 61.2697L227.947 60Z" fill="#7A5648"/>
<path d="M183.56 87.2697L176.618 88.223L207.833 334.429L214.93 333.475L183.56 87.2697Z" fill="#5E4139"/>
<path d="M176.775 88.2219L174 86.6349L205.307 335.096L207.921 334.745L176.775 88.2219Z" fill="#4C2E88"/>
<path d="M215 332.318L207.921 332.831V465H215V332.318Z" fill="#5E4139"/>
<path d="M207.921 334.858L205.146 333.588V463.095L207.921 465L207.921 334.858Z" fill="#4C2E88"/>
<path d="M179.67 86L174 86.6349L176.686 88.5394L183.56 87.2697L179.67 86Z" fill="#7A5648"/>
<path d="M258 350L214 368.182V375L258 356.493V350Z" fill="#5E4139"/>
<path d="M255.068 350L215 366.333V369L258 350.333L255.068 350Z" fill="#3E2622"/>
<path d="M258 379L214 397.182V404L258 385.493V379Z" fill="#5E4139"/>
<path d="M254.136 379L215 395.333V398L257 379.333L254.136 379Z" fill="#3E2622"/>
<path d="M258 408L214 426.182V433L258 414.493V408Z" fill="#5E4139"/>
<path d="M254.136 408L215 424.333V427L257 408.333L254.136 408Z" fill="#3E2622"/>
<path d="M258 314L214 332.182V339L258 320.493V314Z" fill="#5E4139"/>
<path d="M255.067 314L214 330.379V333L258 314.328L255.067 314Z" fill="#3E2622"/>
<path d="M253.367 282L210 300.507L210.95 307L254 288.493L253.367 282Z" fill="#5E4139"/>
<path d="M251.109 281L210 299.103L210.321 302L254 281.362L251.109 281Z" fill="#3E2622"/>
<path d="M250.338 249L204 268.418L204.993 275L251 256.57L250.338 249Z" fill="#5E4139"/>
<path d="M247.412 249L206 266.068V268L250 249.322L247.412 249Z" fill="#3E2622"/>
<path d="M243.366 213L199 231.671L199.951 238L244 220.278L243.366 213Z" fill="#5E4139"/>
<path d="M240.529 213L201 230.068V232L243 213.322L240.529 213Z" fill="#3E2622"/>
<path d="M240.352 172L195 191.418L195.972 198L241 179.57L240.352 172Z" fill="#5E4139"/>
<path d="M237.412 172L196 189.39V191L240 172.322L237.412 172Z" fill="#3E2622"/>
<path d="M239.512 172.528V176.09C241.563 177.816 246.246 183.536 248.577 192.601C251.059 186.666 254.34 172.269 247.606 162.168C246.635 164.974 243.656 170.974 239.512 172.528Z" fill="#F6AEA3"/>
<path d="M235.303 176.413V173.823C234.008 174.255 231.126 174.036 227.5 173C226.421 172.46 224.259 171.68 224 166.5C225.187 167.255 228.41 166.644 231 162.5C231.432 159.91 230.234 155.097 223.5 159.5V147C222.205 147.54 218.403 149.338 216.849 154C217.065 155.187 217.238 159.19 214.907 160.226C213.612 160.981 212.058 162.816 216.202 164.111C215.878 165.298 215.554 168.319 216.849 170.909C216.957 171.449 217.821 172.528 220.411 172.528C222.029 172.312 225.518 173.579 225 178.5C228.346 178.932 234.785 178.744 235.303 176.413Z" fill="#F6AEA3"/>
<path d="M220.757 194.433C222.228 191.702 223.382 185.463 222.5 180C200.732 177.269 190.459 173.129 188.694 172.31C186.929 171.491 185.748 170.671 183.395 169.032C176.041 162.842 160.686 149.75 158.097 146.909C154.861 143.359 156.038 143.086 154.273 139.808C152.508 136.531 148.39 134.073 145.448 134.346C142.507 134.619 144.86 140.628 145.448 143.086C146.036 145.544 152.508 147.183 154.273 150.46L175.158 176.134C177.218 178.319 180.751 181.05 184.281 181.869C187.223 183.508 203.99 190.336 206.343 190.882C208.697 191.429 212.227 192.248 213.698 194.433C214.874 196.181 215.098 198.681 215 199.5C216.471 198.863 219.581 196.618 220.757 194.433Z" fill="#F6AEA3"/>
<path d="M245.747 188.017C242.653 187.795 237.173 184.738 233.035 181.065C242.395 161.224 243.999 151.02 244.254 149.091C244.508 147.162 244.449 145.726 244.327 142.861C243.041 133.334 240.218 113.354 239.207 109.646C237.944 105.011 237.082 105.858 235.261 102.612C233.44 99.3652 233.572 94.5709 235.379 92.2338C237.186 89.8967 240.998 95.1038 242.758 96.9179C244.518 98.732 242.433 105.074 244.254 108.32L254.736 139.713C255.477 142.622 255.889 147.069 254.689 150.489C254.496 153.85 251.274 171.666 250.474 173.945C249.674 176.225 248.474 179.644 249.531 182.057C250.376 183.987 252.076 185.182 252.82 185.539C251.494 186.439 248.222 188.195 245.747 188.017Z" fill="#F6AEA3"/>
<path d="M224.943 178.356C224.684 179.392 222.893 179.974 222.029 179.974C224.619 191.63 218.885 197.881 215 199.5C216.727 203.169 218.274 213.062 217.497 219.796C231.418 225.948 231.418 225.948 248.577 217.206C247.498 215.48 245.469 212.026 244.692 210.731C243.721 209.112 248.253 194.22 248.577 193.572C247.8 186.32 242.102 178.787 239.512 176.413C237.605 177.685 235.303 176.413 235.627 176.737C234.566 179.049 228.065 178.786 224.943 178.356Z" fill="white"/>
<path d="M256.347 235.337C256.887 231.668 255.752 222.439 248.5 217C241.054 218.943 236 229 217.5 219.5C217.5 221.766 221.382 284.224 222.029 284.871C222.547 285.389 227.126 324.683 229.5 344C231.443 344.54 236.428 345.09 238.5 342.5C236.881 337.967 245.987 298.469 238.217 285.195C237.958 277.166 240.699 267.604 242.102 263.827C244.368 270.95 249.289 285.325 250.843 285.843C256.283 290.505 283.766 309.367 296.5 318C298.335 317.568 302 315.626 302 312C293.259 301.64 276.938 277.554 266.06 278.072C267.679 276.777 257.319 245.049 256.347 235.337Z" fill="#3A1277"/>
<path d="M253.11 237.603C252.139 238.25 246.052 244.596 243.721 244.078L242.102 264.151L246.635 246.344C247.714 245.805 250.52 243.301 253.11 237.603Z" fill="#170336"/>
<path d="M311 315L304.587 315.304C304.803 317.031 304.367 320.428 301 322.5C302.403 324.119 305.364 328.254 304.587 329.549C302.429 331.6 298.392 336.446 301.5 338H305.5C306.363 338.108 310.5 337.5 312.5 332.5C312.932 331.853 313.5 327 311 315Z" fill="white"/>
<path d="M243 353.5C242.892 352.097 241.108 348.759 238 348.5C236.921 350.335 233.626 352.831 230 350.5C229.676 352.443 231.03 357.91 228.181 359.982H223.001C221.382 359.982 220.586 364.705 223.5 366C226.09 366 228.504 366.134 233.685 365.81C235.303 364.191 237.82 361.27 243 353.5Z" fill="white"/>
<path d="M232.367 366.121C233.037 366.32 236.302 363.292 243 353.5L243 355.5C240.5 358.833 235.5 366 233.5 367C231.5 367 222.5 367.5 223.324 366.121H232.367Z" fill="#170336"/>
<path d="M312 333C312.857 331.5 313.331 330.022 311 315L312 314.5C312.833 319.333 314.3 330 313.5 332C312.5 334.5 310 338 307 338.5C304 339 301.673 338.5 301.673 338.5V337.967H304.911C306.529 337.967 309.5 337.376 312 333Z" fill="#170336"/>
<path d="M229.799 344.012L230.111 350.744C231.358 351.968 234.9 353.302 237.893 348.651L238.217 342.5C236.45 343.52 232.293 344.991 229.799 344.012Z" fill="#F6AEA3"/>
<path d="M296.169 317.894L301.025 322.751C302.213 322.535 304.587 321.002 304.587 315.304L301.673 312.067C301.349 314.333 301.09 316.081 296.169 317.894Z" fill="#F6AEA3"/>
<path d="M223.324 159.902V147.599C221.921 148.031 218.598 150.124 216.526 155.045C215.986 153.103 216.202 148.117 221.382 143.714C228.289 139.505 243.203 135.879 247.606 155.045C255.635 164.369 250.196 167.348 253.11 179.003C256.218 189.104 251.815 197.026 249.225 199.723C245.34 203.609 248.901 209.112 249.872 209.76C244.433 210.537 241.778 207.278 241.131 205.551C240.483 207.494 240.16 209.76 242.426 212.674C236.21 210.861 237.57 206.414 237.246 203.285C234.98 206.199 233.792 207.17 234.98 210.084C227.209 204.645 224.835 195.083 224.619 190.982C223.065 192.795 223.756 196.918 224.296 198.752C217.821 190.335 226.09 170.856 223.5 166C224.471 166.648 227.08 167.413 230.447 162.492C230.771 160.01 229.799 156.017 223.324 159.902Z" fill="#F1D07C"/>
<path d="M245.176 160.241C245.662 158.298 247.766 156.679 249.385 158.298C250.786 159.699 250.579 160.729 250.369 161.77C250.24 162.413 250.109 163.06 250.356 163.802C250.757 165.002 250.291 165.337 249.648 165.8C249.25 166.086 248.785 166.421 248.414 167.039C247.535 168.505 246.124 167.051 245.145 164.36C244.832 164.611 244.453 164.758 244.045 164.758C243.689 164.758 243.355 164.646 243.068 164.451C242.096 167.679 240.482 169.611 239.512 167.996C239.141 167.377 238.676 167.042 238.278 166.756C237.635 166.293 237.169 165.959 237.57 164.758C237.817 164.016 237.686 163.369 237.557 162.726C237.347 161.685 237.14 160.655 238.541 159.254C240.076 157.719 242.049 159.096 242.662 160.9C243.014 160.483 243.504 160.225 244.045 160.225C244.428 160.225 244.786 160.355 245.088 160.579C245.117 160.471 245.147 160.358 245.176 160.241Z" fill="#4C2E88"/>
<defs>
<linearGradient id="paint0_linear_408_852" x1="153.985" y1="462.209" x2="548.799" y2="139.147" gradientUnits="userSpaceOnUse">
<stop stop-color="#1F0050"/>
<stop offset="0.46875" stop-color="#7208C6"/>
<stop offset="1" stop-color="#7000FE"/>
</linearGradient>
<linearGradient id="paint1_linear_408_852" x1="153.985" y1="462.209" x2="548.799" y2="139.147" gradientUnits="userSpaceOnUse">
<stop stop-color="#1F0050"/>
<stop offset="0.46875" stop-color="#7208C6"/>
<stop offset="1" stop-color="#7000FE"/>
</linearGradient>
<linearGradient id="paint2_linear_408_852" x1="153.985" y1="462.209" x2="548.799" y2="139.147" gradientUnits="userSpaceOnUse">
<stop stop-color="#1F0050"/>
<stop offset="0.46875" stop-color="#7208C6"/>
<stop offset="1" stop-color="#7000FE"/>
</linearGradient>
<linearGradient id="paint3_linear_408_852" x1="153.985" y1="462.209" x2="548.799" y2="139.147" gradientUnits="userSpaceOnUse">
<stop stop-color="#1F0050"/>
<stop offset="0.46875" stop-color="#7208C6"/>
<stop offset="1" stop-color="#7000FE"/>
</linearGradient>
</defs>
</svg>
