<svg width="112" height="43" viewBox="0 0 112 43" fill="none" xmlns="http://www.w3.org/2000/svg">
<g clip-path="url(#clip0_595_160)">
<path d="M85.6633 0.5H69.0296C67.8813 0.5 66.9504 1.43708 66.9504 2.59302V19.3372C66.9504 20.4932 67.8813 21.4302 69.0296 21.4302H85.6633C86.8116 21.4302 87.7425 20.4932 87.7425 19.3372V2.59302C87.7425 1.43708 86.8116 0.5 85.6633 0.5Z" fill="url(#paint0_linear_595_160)"/>
<path d="M84.5545 11.2441H79.703C78.5547 11.2441 77.6238 12.1812 77.6238 13.3372V18.2209C77.6238 19.3768 78.5547 20.3139 79.703 20.3139H84.5545C85.7028 20.3139 86.6337 19.3768 86.6337 18.2209V13.3372C86.6337 12.1812 85.7028 11.2441 84.5545 11.2441Z" fill="white"/>
<path d="M80.7253 16.0623V15.9102L81.1828 15.2907H81.4184L80.9707 15.9102L80.8612 15.8781H81.625V16.0623H80.7253ZM81.2479 16.2674V16.0623L81.2548 15.8781V15.6953H81.4669V16.2674H81.2479ZM82.1356 16.2842C82.0562 16.2842 81.9849 16.2646 81.9221 16.2256C81.8593 16.1855 81.8099 16.1279 81.7738 16.0525C81.7378 15.9772 81.7198 15.8861 81.7198 15.779C81.7198 15.672 81.7378 15.5809 81.7738 15.5056C81.8099 15.4302 81.8593 15.373 81.9221 15.3339C81.9849 15.2939 82.0562 15.2739 82.1356 15.2739C82.216 15.2739 82.2871 15.2939 82.3491 15.3339C82.4119 15.373 82.4613 15.4302 82.4974 15.5056C82.5334 15.5809 82.5514 15.672 82.5514 15.779C82.5514 15.8861 82.5334 15.9772 82.4974 16.0525C82.4613 16.1279 82.4119 16.1855 82.3491 16.2256C82.2871 16.2646 82.216 16.2842 82.1356 16.2842ZM82.1356 16.093C82.1734 16.093 82.2063 16.0823 82.234 16.0609C82.2627 16.0396 82.2849 16.0055 82.3006 15.959C82.3172 15.9126 82.3255 15.8526 82.3255 15.779C82.3255 15.7055 82.3172 15.6455 82.3006 15.599C82.2849 15.5526 82.2627 15.5185 82.234 15.4972C82.2063 15.4758 82.1734 15.4651 82.1356 15.4651C82.0986 15.4651 82.0659 15.4758 82.0372 15.4972C82.0095 15.5185 81.9873 15.5526 81.9706 15.599C81.955 15.6455 81.9471 15.7055 81.9471 15.779C81.9471 15.8526 81.955 15.9126 81.9706 15.959C81.9873 16.0055 82.0095 16.0396 82.0372 16.0609C82.0659 16.0823 82.0986 16.093 82.1356 16.093ZM83.1041 16.2842C83.0247 16.2842 82.9536 16.2646 82.8906 16.2256C82.8278 16.1855 82.7784 16.1279 82.7423 16.0525C82.7063 15.9772 82.6883 15.8861 82.6883 15.779C82.6883 15.672 82.7063 15.5809 82.7423 15.5056C82.7784 15.4302 82.8278 15.373 82.8906 15.3339C82.9536 15.2939 83.0247 15.2739 83.1041 15.2739C83.1845 15.2739 83.2557 15.2939 83.3176 15.3339C83.3805 15.373 83.4298 15.4302 83.4659 15.5056C83.5019 15.5809 83.5199 15.672 83.5199 15.779C83.5199 15.8861 83.5019 15.9772 83.4659 16.0525C83.4298 16.1279 83.3805 16.1855 83.3176 16.2256C83.2557 16.2646 83.1845 16.2842 83.1041 16.2842ZM83.1041 16.093C83.1421 16.093 83.1748 16.0823 83.2025 16.0609C83.2312 16.0396 83.2534 16.0055 83.269 15.959C83.2857 15.9126 83.294 15.8526 83.294 15.779C83.294 15.7055 83.2857 15.6455 83.269 15.599C83.2534 15.5526 83.2312 15.5185 83.2025 15.4972C83.1748 15.4758 83.1421 15.4651 83.1041 15.4651C83.0672 15.4651 83.0344 15.4758 83.0057 15.4972C82.978 15.5185 82.9558 15.5526 82.9391 15.599C82.9235 15.6455 82.9156 15.7055 82.9156 15.779C82.9156 15.8526 82.9235 15.9126 82.9391 15.959C82.9558 16.0055 82.978 16.0396 83.0057 16.0609C83.0344 16.0823 83.0672 16.093 83.1041 16.093Z" fill="black"/>
<path d="M74.99 11.2441H70.1385C68.9902 11.2441 68.0593 12.1812 68.0593 13.3372V18.2209C68.0593 19.3768 68.9902 20.3139 70.1385 20.3139H74.99C76.1383 20.3139 77.0692 19.3768 77.0692 18.2209V13.3372C77.0692 12.1812 76.1383 11.2441 74.99 11.2441Z" fill="white"/>
<path d="M71.6238 16.2842C71.5563 16.2842 71.4893 16.2754 71.4228 16.2576C71.3562 16.2391 71.2998 16.213 71.2537 16.1795L71.341 16.0065C71.378 16.0334 71.421 16.0549 71.4699 16.0707C71.5188 16.0864 71.5683 16.0944 71.6182 16.0944C71.6746 16.0944 71.719 16.0832 71.7513 16.0609C71.7836 16.0386 71.7998 16.0079 71.7998 15.9688C71.7998 15.9316 71.7855 15.9023 71.7568 15.8809C71.7281 15.8596 71.682 15.8488 71.6182 15.8488H71.5156V15.6995L71.7859 15.3911L71.8109 15.4721H71.3022V15.2907H71.9814V15.4372L71.7125 15.7456L71.5988 15.68H71.664C71.7832 15.68 71.8733 15.7069 71.9343 15.7609C71.9952 15.8149 72.0257 15.8841 72.0257 15.9688C72.0257 16.0236 72.0115 16.0753 71.9828 16.1237C71.9541 16.1711 71.9103 16.2098 71.8511 16.2395C71.7919 16.2692 71.7162 16.2842 71.6238 16.2842ZM72.573 16.2842C72.4936 16.2842 72.4223 16.2646 72.3595 16.2256C72.2967 16.1855 72.2472 16.1279 72.2112 16.0525C72.1752 15.9772 72.1571 15.8861 72.1571 15.779C72.1571 15.672 72.1752 15.5809 72.2112 15.5056C72.2472 15.4302 72.2967 15.373 72.3595 15.3339C72.4223 15.2939 72.4936 15.2739 72.573 15.2739C72.6534 15.2739 72.7245 15.2939 72.7865 15.3339C72.8492 15.373 72.8987 15.4302 72.9348 15.5056C72.9708 15.5809 72.9888 15.672 72.9888 15.779C72.9888 15.8861 72.9708 15.9772 72.9348 16.0525C72.8987 16.1279 72.8492 16.1855 72.7865 16.2256C72.7245 16.2646 72.6534 16.2842 72.573 16.2842ZM72.573 16.093C72.6108 16.093 72.6437 16.0823 72.6714 16.0609C72.7001 16.0396 72.7223 16.0055 72.7379 15.959C72.7546 15.9126 72.7629 15.8526 72.7629 15.779C72.7629 15.7055 72.7546 15.6455 72.7379 15.599C72.7223 15.5526 72.7001 15.5185 72.6714 15.4972C72.6437 15.4758 72.6108 15.4651 72.573 15.4651C72.536 15.4651 72.5033 15.4758 72.4746 15.4972C72.4468 15.5185 72.4247 15.5526 72.408 15.599C72.3924 15.6455 72.3845 15.7055 72.3845 15.779C72.3845 15.8526 72.3924 15.9126 72.408 15.959C72.4247 16.0055 72.4468 16.0396 72.4746 16.0609C72.5033 16.0823 72.536 16.093 72.573 16.093ZM73.5415 16.2842C73.4621 16.2842 73.3908 16.2646 73.328 16.2256C73.2652 16.1855 73.2157 16.1279 73.1797 16.0525C73.1437 15.9772 73.1256 15.8861 73.1256 15.779C73.1256 15.672 73.1437 15.5809 73.1797 15.5056C73.2157 15.4302 73.2652 15.373 73.328 15.3339C73.3908 15.2939 73.4621 15.2739 73.5415 15.2739C73.6219 15.2739 73.693 15.2939 73.7549 15.3339C73.8177 15.373 73.8672 15.4302 73.9033 15.5056C73.9393 15.5809 73.9573 15.672 73.9573 15.779C73.9573 15.8861 73.9393 15.9772 73.9033 16.0525C73.8672 16.1279 73.8177 16.1855 73.7549 16.2256C73.693 16.2646 73.6219 16.2842 73.5415 16.2842ZM73.5415 16.093C73.5793 16.093 73.6122 16.0823 73.6399 16.0609C73.6686 16.0396 73.6908 16.0055 73.7064 15.959C73.7231 15.9126 73.7314 15.8526 73.7314 15.779C73.7314 15.7055 73.7231 15.6455 73.7064 15.599C73.6908 15.5526 73.6686 15.5185 73.6399 15.4972C73.6122 15.4758 73.5793 15.4651 73.5415 15.4651C73.5045 15.4651 73.4718 15.4758 73.4431 15.4972C73.4153 15.5185 73.3932 15.5526 73.3765 15.599C73.3609 15.6455 73.353 15.7055 73.353 15.779C73.353 15.8526 73.3609 15.9126 73.3765 15.959C73.3932 16.0055 73.4153 16.0396 73.4431 16.0609C73.4718 16.0823 73.5045 16.093 73.5415 16.093Z" fill="black"/>
<path d="M84.5545 1.61633H79.703C78.5547 1.61633 77.6238 2.55341 77.6238 3.70936V8.59308C77.6238 9.74902 78.5547 10.6861 79.703 10.6861H84.5545C85.7028 10.6861 86.6337 9.74902 86.6337 8.59308V3.70936C86.6337 2.55341 85.7028 1.61633 84.5545 1.61633Z" fill="white"/>
<path d="M80.8664 6.63948V6.49297L81.2406 6.13716C81.2702 6.11019 81.2919 6.08599 81.3058 6.0646C81.3197 6.04321 81.3288 6.02367 81.3335 6.006C81.3391 5.98832 81.3418 5.97205 81.3418 5.95716C81.3418 5.91809 81.3284 5.88833 81.3016 5.86786C81.2757 5.84647 81.2373 5.83576 81.1866 5.83576C81.1458 5.83576 81.108 5.84367 81.0729 5.85948C81.0387 5.87529 81.0096 5.89995 80.9856 5.93344L80.822 5.82739C80.8589 5.77158 80.9107 5.72739 80.9773 5.69483C81.0438 5.66228 81.1205 5.646 81.2074 5.646C81.2795 5.646 81.3422 5.65809 81.3959 5.68227C81.4504 5.70554 81.4924 5.73855 81.522 5.78134C81.5525 5.82414 81.5678 5.87529 81.5678 5.93483C81.5678 5.96647 81.5636 5.99808 81.5553 6.02972C81.5478 6.06041 81.5321 6.09297 81.5082 6.12739C81.485 6.16181 81.4508 6.20041 81.4056 6.24321L81.0951 6.53762L81.0521 6.4553H81.5997V6.63948H80.8664ZM82.1358 6.65623C82.0564 6.65623 81.9851 6.63669 81.9223 6.59762C81.8596 6.55762 81.8101 6.49995 81.774 6.4246C81.738 6.34925 81.72 6.25809 81.72 6.15111C81.72 6.04413 81.738 5.95297 81.774 5.87762C81.8101 5.80228 81.8596 5.74507 81.9223 5.706C81.9851 5.66599 82.0564 5.646 82.1358 5.646C82.2162 5.646 82.2873 5.66599 82.3493 5.706C82.4121 5.74507 82.4615 5.80228 82.4976 5.87762C82.5336 5.95297 82.5516 6.04413 82.5516 6.15111C82.5516 6.25809 82.5336 6.34925 82.4976 6.4246C82.4615 6.49995 82.4121 6.55762 82.3493 6.59762C82.2873 6.63669 82.2162 6.65623 82.1358 6.65623ZM82.1358 6.46507C82.1736 6.46507 82.2065 6.45436 82.2342 6.43297C82.2629 6.41158 82.2851 6.37762 82.3008 6.33111C82.3174 6.28461 82.3257 6.22461 82.3257 6.15111C82.3257 6.07762 82.3174 6.01762 82.3008 5.97111C82.2851 5.92461 82.2629 5.89064 82.2342 5.86925C82.2065 5.84786 82.1736 5.83716 82.1358 5.83716C82.0988 5.83716 82.0661 5.84786 82.0374 5.86925C82.0097 5.89064 81.9875 5.92461 81.9709 5.97111C81.9552 6.01762 81.9473 6.07762 81.9473 6.15111C81.9473 6.22461 81.9552 6.28461 81.9709 6.33111C81.9875 6.37762 82.0097 6.41158 82.0374 6.43297C82.0661 6.45436 82.0988 6.46507 82.1358 6.46507ZM83.1043 6.65623C83.0249 6.65623 82.9538 6.63669 82.8908 6.59762C82.828 6.55762 82.7786 6.49995 82.7425 6.4246C82.7065 6.34925 82.6885 6.25809 82.6885 6.15111C82.6885 6.04413 82.7065 5.95297 82.7425 5.87762C82.7786 5.80228 82.828 5.74507 82.8908 5.706C82.9538 5.66599 83.0249 5.646 83.1043 5.646C83.1847 5.646 83.2559 5.66599 83.3178 5.706C83.3807 5.74507 83.43 5.80228 83.4661 5.87762C83.5021 5.95297 83.5201 6.04413 83.5201 6.15111C83.5201 6.25809 83.5021 6.34925 83.4661 6.4246C83.43 6.49995 83.3807 6.55762 83.3178 6.59762C83.2559 6.63669 83.1847 6.65623 83.1043 6.65623ZM83.1043 6.46507C83.1423 6.46507 83.175 6.45436 83.2027 6.43297C83.2314 6.41158 83.2536 6.37762 83.2693 6.33111C83.2859 6.28461 83.2942 6.22461 83.2942 6.15111C83.2942 6.07762 83.2859 6.01762 83.2693 5.97111C83.2536 5.92461 83.2314 5.89064 83.2027 5.86925C83.175 5.84786 83.1423 5.83716 83.1043 5.83716C83.0674 5.83716 83.0346 5.84786 83.0059 5.86925C82.9782 5.89064 82.956 5.92461 82.9394 5.97111C82.9237 6.01762 82.9158 6.07762 82.9158 6.15111C82.9158 6.22461 82.9237 6.28461 82.9394 6.33111C82.956 6.37762 82.9782 6.41158 83.0059 6.43297C83.0346 6.45436 83.0674 6.46507 83.1043 6.46507Z" fill="black"/>
<g opacity="0.15">
<path d="M74.99 1.61633H70.1385C68.9902 1.61633 68.0593 2.55341 68.0593 3.70936V8.59308C68.0593 9.74902 68.9902 10.6861 70.1385 10.6861H74.99C76.1383 10.6861 77.0692 9.74902 77.0692 8.59308V3.70936C77.0692 2.55341 76.1383 1.61633 74.99 1.61633Z" fill="white"/>
<path d="M71.5974 6.63961V5.74658L71.6944 5.84426H71.4033V5.66286H71.8219V6.63961H71.5974ZM72.434 6.65635C72.3546 6.65635 72.2834 6.63682 72.2206 6.59775C72.1578 6.55774 72.1083 6.50007 72.0723 6.42472C72.0362 6.34937 72.0182 6.25822 72.0182 6.15123C72.0182 6.04425 72.0362 5.95309 72.0723 5.87775C72.1083 5.8024 72.1578 5.74519 72.2206 5.70612C72.2834 5.66611 72.3546 5.64612 72.434 5.64612C72.5144 5.64612 72.5856 5.66611 72.6475 5.70612C72.7103 5.74519 72.7598 5.8024 72.7958 5.87775C72.8319 5.95309 72.8499 6.04425 72.8499 6.15123C72.8499 6.25822 72.8319 6.34937 72.7958 6.42472C72.7598 6.50007 72.7103 6.55774 72.6475 6.59775C72.5856 6.63682 72.5144 6.65635 72.434 6.65635ZM72.434 6.46519C72.4719 6.46519 72.5047 6.45449 72.5325 6.43309C72.5612 6.4117 72.5833 6.37774 72.599 6.33123C72.6156 6.28473 72.624 6.22473 72.624 6.15123C72.624 6.07774 72.6156 6.01774 72.599 5.97123C72.5833 5.92473 72.5612 5.89076 72.5325 5.86937C72.5047 5.84798 72.4719 5.83728 72.434 5.83728C72.397 5.83728 72.3643 5.84798 72.3356 5.86937C72.3079 5.89076 72.2857 5.92473 72.2691 5.97123C72.2534 6.01774 72.2455 6.07774 72.2455 6.15123C72.2455 6.22473 72.2534 6.28473 72.2691 6.33123C72.2857 6.37774 72.3079 6.4117 72.3356 6.43309C72.3643 6.45449 72.397 6.46519 72.434 6.46519ZM73.4025 6.65635C73.3231 6.65635 73.2519 6.63682 73.1891 6.59775C73.1263 6.55774 73.0768 6.50007 73.0408 6.42472C73.0047 6.34937 72.9867 6.25822 72.9867 6.15123C72.9867 6.04425 73.0047 5.95309 73.0408 5.87775C73.0768 5.8024 73.1263 5.74519 73.1891 5.70612C73.2519 5.66611 73.3231 5.64612 73.4025 5.64612C73.4829 5.64612 73.5541 5.66611 73.616 5.70612C73.6788 5.74519 73.7283 5.8024 73.7643 5.87775C73.8004 5.95309 73.8184 6.04425 73.8184 6.15123C73.8184 6.25822 73.8004 6.34937 73.7643 6.42472C73.7283 6.50007 73.6788 6.55774 73.616 6.59775C73.5541 6.63682 73.4829 6.65635 73.4025 6.65635ZM73.4025 6.46519C73.4404 6.46519 73.4732 6.45449 73.501 6.43309C73.5297 6.4117 73.5518 6.37774 73.5675 6.33123C73.5841 6.28473 73.5925 6.22473 73.5925 6.15123C73.5925 6.07774 73.5841 6.01774 73.5675 5.97123C73.5518 5.92473 73.5297 5.89076 73.501 5.86937C73.4732 5.84798 73.4404 5.83728 73.4025 5.83728C73.3655 5.83728 73.3328 5.84798 73.3041 5.86937C73.2764 5.89076 73.2542 5.92473 73.2376 5.97123C73.2219 6.01774 73.214 6.07774 73.214 6.15123C73.214 6.22473 73.2219 6.28473 73.2376 6.33123C73.2542 6.37774 73.2764 6.4117 73.3041 6.43309C73.3328 6.45449 73.3655 6.46519 73.4025 6.46519Z" fill="black"/>
</g>
<g filter="url(#filter0_d_595_160)">
<path d="M108.731 13.7267L2.07632 19.3908C0.9296 19.4517 0.0483974 20.4369 0.108099 21.5913L1.03183 39.4526C1.09153 40.6069 2.06953 41.4934 3.21625 41.4325L109.871 35.7683C111.017 35.7074 111.898 34.7222 111.839 33.5678L110.915 15.7066C110.855 14.5522 109.877 13.6658 108.731 13.7267Z" fill="#353535"/>
</g>
<g filter="url(#filter1_d_595_160)">
<path d="M20.7255 27.1149H23.9954V28.3456H20.7255V27.1149ZM20.842 29.9279H24.5388V31.1977H19.2798V24.3605H24.4127V25.6303H20.842V29.9279ZM29.0202 31.3149C28.4962 31.3149 28.0077 31.2302 27.555 31.061C27.1087 30.8851 26.7206 30.6378 26.3907 30.3186C26.0608 29.9995 25.802 29.6251 25.6144 29.1954C25.4333 28.7656 25.3428 28.2936 25.3428 27.7791C25.3428 27.2646 25.4333 26.7926 25.6144 26.3628C25.802 25.9331 26.0608 25.5587 26.3907 25.2396C26.727 24.9204 27.1184 24.6763 27.5647 24.507C28.0111 24.3312 28.4994 24.2433 29.0299 24.2433C29.6184 24.2433 30.1489 24.3475 30.6212 24.5558C31.0998 24.7577 31.5008 25.0572 31.8243 25.4544L30.8152 26.3921C30.5824 26.1252 30.3236 25.9265 30.039 25.7963C29.7543 25.6596 29.4438 25.5912 29.1075 25.5912C28.7905 25.5912 28.4994 25.6432 28.2342 25.7475C27.9689 25.8517 27.7394 26.0014 27.5453 26.1968C27.3513 26.3921 27.1992 26.6233 27.0893 26.8903C26.9857 27.1572 26.934 27.4536 26.934 27.7791C26.934 28.1046 26.9857 28.401 27.0893 28.6679C27.1992 28.9349 27.3513 29.1661 27.5453 29.3614C27.7394 29.5568 27.9689 29.7065 28.2342 29.8107C28.4994 29.915 28.7905 29.967 29.1075 29.967C29.4438 29.967 29.7543 29.9018 30.039 29.7717C30.3236 29.6349 30.5824 29.4298 30.8152 29.1563L31.8243 30.094C31.5008 30.4912 31.0998 30.794 30.6212 31.0024C30.1489 31.2107 29.6153 31.3149 29.0202 31.3149ZM34.2476 31.1977V25.2884L34.6066 25.6498H32.0838V24.3605H37.9735V25.6498H35.4508L35.8001 25.2884V31.1977H34.2476ZM42.2498 26.607C43.0713 26.607 43.7052 26.7926 44.1515 27.1638C44.5979 27.5284 44.8211 28.0787 44.8211 28.8144C44.8211 29.5958 44.5721 30.1884 44.0739 30.5921C43.5824 30.9958 42.8999 31.1977 42.0266 31.1977H38.9605V24.3605H40.5226V26.607H42.2498ZM41.9393 30.0256C42.3404 30.0256 42.6573 29.9247 42.8902 29.7228C43.123 29.5209 43.2395 29.2279 43.2395 28.8438C43.2395 28.466 43.123 28.1959 42.8902 28.0331C42.6638 27.8638 42.3468 27.7791 41.9393 27.7791H40.5226V30.0256H41.9393Z" fill="#F4DE11"/>
<path d="M48.7014 31.1977V24.3605H51.8646C52.6537 24.3605 53.2683 24.5136 53.7081 24.8196C54.148 25.1256 54.368 25.5619 54.368 26.1284C54.368 26.6884 54.161 27.1247 53.747 27.4372C53.3329 27.7432 52.7832 27.8963 52.0975 27.8963L52.2818 27.4861C53.0452 27.4861 53.637 27.6391 54.0575 27.9451C54.4779 28.2511 54.6881 28.694 54.6881 29.2735C54.6881 29.8725 54.4618 30.3447 54.0089 30.6898C53.5626 31.0284 52.9093 31.1977 52.0489 31.1977H48.7014ZM50.2636 30.0256H51.9907C52.3529 30.0256 52.6279 29.954 52.8155 29.8107C53.003 29.6674 53.0969 29.4461 53.0969 29.1465C53.0969 28.8601 53.003 28.6484 52.8155 28.5117C52.6279 28.3684 52.3529 28.2968 51.9907 28.2968H50.2636V30.0256ZM50.2636 27.1931H51.7287C52.0715 27.1931 52.3303 27.1247 52.505 26.9879C52.6796 26.8446 52.767 26.6363 52.767 26.3628C52.767 26.0893 52.6796 25.8842 52.505 25.7475C52.3303 25.6042 52.0715 25.5326 51.7287 25.5326H50.2636V27.1931ZM59.1817 31.3149C58.6449 31.3149 58.1467 31.227 57.6875 31.0512C57.2346 30.8754 56.8401 30.628 56.5037 30.3089C56.1738 29.9898 55.915 29.6154 55.7275 29.1856C55.5463 28.7558 55.4558 28.287 55.4558 27.7791C55.4558 27.2712 55.5463 26.8024 55.7275 26.3726C55.915 25.9428 56.177 25.5684 56.5134 25.2493C56.8498 24.9302 57.2443 24.6828 57.6972 24.507C58.15 24.3312 58.6416 24.2433 59.172 24.2433C59.7089 24.2433 60.2005 24.3312 60.6469 24.507C61.0997 24.6828 61.491 24.9302 61.8209 25.2493C62.1574 25.5684 62.4193 25.9428 62.6069 26.3726C62.7944 26.7958 62.8883 27.2646 62.8883 27.7791C62.8883 28.287 62.7944 28.7591 62.6069 29.1954C62.4193 29.6251 62.1574 29.9995 61.8209 30.3186C61.491 30.6312 61.0997 30.8754 60.6469 31.0512C60.2005 31.227 59.7122 31.3149 59.1817 31.3149ZM59.172 29.967C59.476 29.967 59.7542 29.915 60.0065 29.8107C60.2653 29.7065 60.4916 29.5568 60.6857 29.3614C60.8797 29.1661 61.0285 28.9349 61.132 28.6679C61.2419 28.401 61.297 28.1046 61.297 27.7791C61.297 27.4536 61.2419 27.1572 61.132 26.8903C61.0285 26.6233 60.8797 26.3921 60.6857 26.1968C60.4981 26.0014 60.275 25.8517 60.0162 25.7475C59.7574 25.6432 59.476 25.5912 59.172 25.5912C58.868 25.5912 58.5867 25.6432 58.3279 25.7475C58.0756 25.8517 57.8524 26.0014 57.6584 26.1968C57.4643 26.3921 57.3122 26.6233 57.2023 26.8903C57.0988 27.1572 57.0471 27.4536 57.0471 27.7791C57.0471 28.0982 57.0988 28.3944 57.2023 28.6679C57.3122 28.9349 57.4611 29.1661 57.6487 29.3614C57.8427 29.5568 58.0691 29.7065 58.3279 29.8107C58.5867 29.915 58.868 29.967 59.172 29.967ZM64.0992 31.1977V24.3605H70.2897V31.1977H68.7275V25.2884L69.0865 25.6498H65.3024L65.6614 25.2884V31.1977H64.0992ZM71.9733 31.1977V24.3605H74.9133C75.5214 24.3605 76.0454 24.4614 76.4852 24.6633C76.9251 24.8586 77.2647 25.1419 77.504 25.5131C77.7434 25.8842 77.863 26.327 77.863 26.8414C77.863 27.3493 77.7434 27.7889 77.504 28.16C77.2647 28.5312 76.9251 28.8177 76.4852 29.0196C76.0454 29.2149 75.5214 29.3126 74.9133 29.3126H72.8466L73.5452 28.5996V31.1977H71.9733ZM73.5452 28.7754L72.8466 28.0233H74.826C75.3111 28.0233 75.6735 27.9191 75.9127 27.7107C76.1521 27.5024 76.2717 27.2126 76.2717 26.8414C76.2717 26.4637 76.1521 26.1707 75.9127 25.9624C75.6735 25.754 75.3111 25.6498 74.826 25.6498H72.8466L73.5452 24.8977V28.7754ZM82.2453 31.3149C81.7083 31.3149 81.2102 31.227 80.751 31.0512C80.2982 30.8754 79.9035 30.628 79.5673 30.3089C79.2374 29.9898 78.9786 29.6154 78.791 29.1856C78.6098 28.7558 78.5193 28.287 78.5193 27.7791C78.5193 27.2712 78.6098 26.8024 78.791 26.3726C78.9786 25.9428 79.2405 25.5684 79.577 25.2493C79.9132 24.9302 80.3079 24.6828 80.7607 24.507C81.2134 24.3312 81.7051 24.2433 82.2356 24.2433C82.7724 24.2433 83.2641 24.3312 83.7104 24.507C84.1631 24.6828 84.5546 24.9302 84.8845 25.2493C85.2208 25.5684 85.4827 25.9428 85.6704 26.3726C85.858 26.7958 85.9518 27.2646 85.9518 27.7791C85.9518 28.287 85.858 28.7591 85.6704 29.1954C85.4827 29.6251 85.2208 29.9995 84.8845 30.3186C84.5546 30.6312 84.1631 30.8754 83.7104 31.0512C83.2641 31.227 82.7756 31.3149 82.2453 31.3149ZM82.2356 29.967C82.5396 29.967 82.8177 29.915 83.07 29.8107C83.3287 29.7065 83.5552 29.5568 83.7492 29.3614C83.9433 29.1661 84.092 28.9349 84.1956 28.6679C84.3055 28.401 84.3605 28.1046 84.3605 27.7791C84.3605 27.4536 84.3055 27.1572 84.1956 26.8903C84.092 26.6233 83.9433 26.3921 83.7492 26.1968C83.5615 26.0014 83.3384 25.8517 83.0797 25.7475C82.8209 25.6432 82.5396 25.5912 82.2356 25.5912C81.9314 25.5912 81.6501 25.6432 81.3914 25.7475C81.1391 25.8517 80.916 26.0014 80.7219 26.1968C80.5278 26.3921 80.3758 26.6233 80.2659 26.8903C80.1623 27.1572 80.1106 27.4536 80.1106 27.7791C80.1106 28.0982 80.1623 28.3944 80.2659 28.6679C80.3758 28.9349 80.5245 29.1661 80.7122 29.3614C80.9063 29.5568 81.1326 29.7065 81.3914 29.8107C81.6501 29.915 81.9314 29.967 82.2356 29.967ZM90.3744 31.3149C89.8505 31.3149 89.362 31.2302 88.9093 31.061C88.4629 30.8851 88.0748 30.6378 87.7449 30.3186C87.415 29.9995 87.1562 29.6251 86.9687 29.1954C86.7875 28.7656 86.697 28.2936 86.697 27.7791C86.697 27.2646 86.7875 26.7926 86.9687 26.3628C87.1562 25.9331 87.415 25.5587 87.7449 25.2396C88.0812 24.9204 88.4726 24.6763 88.919 24.507C89.3653 24.3312 89.8536 24.2433 90.3841 24.2433C90.9727 24.2433 91.5032 24.3475 91.9754 24.5558C92.454 24.7577 92.8551 25.0572 93.1786 25.4544L92.1695 26.3921C91.9366 26.1252 91.6778 25.9265 91.3932 25.7963C91.1085 25.6596 90.798 25.5912 90.4618 25.5912C90.1447 25.5912 89.8537 25.6432 89.5885 25.7475C89.3232 25.8517 89.0936 26.0014 88.8996 26.1968C88.7055 26.3921 88.5535 26.6233 88.4435 26.8903C88.34 27.1572 88.2883 27.4536 88.2883 27.7791C88.2883 28.1046 88.34 28.401 88.4435 28.6679C88.5535 28.9349 88.7055 29.1661 88.8996 29.3614C89.0936 29.5568 89.3232 29.7065 89.5885 29.8107C89.8537 29.915 90.1447 29.967 90.4618 29.967C90.798 29.967 91.1085 29.9018 91.3932 29.7717C91.6778 29.6349 91.9366 29.4298 92.1695 29.1563L93.1786 30.094C92.8551 30.4912 92.454 30.794 91.9754 31.0024C91.5032 31.2107 90.9695 31.3149 90.3744 31.3149Z" fill="white"/>
</g>
</g>
<defs>
<filter id="filter0_d_595_160" x="-3.89478" y="13.7238" width="119.736" height="39.7117" filterUnits="userSpaceOnUse" color-interpolation-filters="sRGB">
<feFlood flood-opacity="0" result="BackgroundImageFix"/>
<feColorMatrix in="SourceAlpha" type="matrix" values="0 0 0 0 0 0 0 0 0 0 0 0 0 0 0 0 0 0 127 0" result="hardAlpha"/>
<feOffset dy="8"/>
<feGaussianBlur stdDeviation="2"/>
<feComposite in2="hardAlpha" operator="out"/>
<feColorMatrix type="matrix" values="0 0 0 0 0 0 0 0 0 0 0 0 0 0 0 0 0 0 0.25 0"/>
<feBlend mode="normal" in2="BackgroundImageFix" result="effect1_dropShadow_595_160"/>
<feBlend mode="normal" in="SourceGraphic" in2="effect1_dropShadow_595_160" result="shape"/>
</filter>
<filter id="filter1_d_595_160" x="14.2798" y="24.2433" width="83.8987" height="17.0717" filterUnits="userSpaceOnUse" color-interpolation-filters="sRGB">
<feFlood flood-opacity="0" result="BackgroundImageFix"/>
<feColorMatrix in="SourceAlpha" type="matrix" values="0 0 0 0 0 0 0 0 0 0 0 0 0 0 0 0 0 0 127 0" result="hardAlpha"/>
<feOffset dy="5"/>
<feGaussianBlur stdDeviation="2.5"/>
<feComposite in2="hardAlpha" operator="out"/>
<feColorMatrix type="matrix" values="0 0 0 0 0 0 0 0 0 0 0 0 0 0 0 0 0 0 0.33 0"/>
<feBlend mode="normal" in2="BackgroundImageFix" result="effect1_dropShadow_595_160"/>
<feBlend mode="normal" in="SourceGraphic" in2="effect1_dropShadow_595_160" result="shape"/>
</filter>
<linearGradient id="paint0_linear_595_160" x1="77.3465" y1="-11.7233" x2="77.3465" y2="44.4535" gradientUnits="userSpaceOnUse">
<stop offset="0.219524" stop-color="#7B44A6"/>
<stop offset="0.806176" stop-color="#391F4E"/>
</linearGradient>
<clipPath id="clip0_595_160">
<rect width="112" height="42" fill="white" transform="translate(0 0.5)"/>
</clipPath>
</defs>
</svg>
